<?xml version="1.0" encoding="UTF-8" standalone="no"?>
<!DOCTYPE svg PUBLIC "-//W3C//DTD SVG 1.1//EN"
 "http://www.w3.org/Graphics/SVG/1.1/DTD/svg11.dtd">
<!-- Generated by graphviz version 2.40.1 (20161225.0304)
 -->
<!-- Title: Rules Pages: 1 -->
<svg width="7639pt" height="548pt"
 viewBox="0.00 0.00 7638.50 548.00" xmlns="http://www.w3.org/2000/svg" xmlns:xlink="http://www.w3.org/1999/xlink">
<g id="graph0" class="graph" transform="scale(1 1) rotate(0) translate(4 544)">
<title>Rules</title>
<polygon fill="#ffffff" stroke="transparent" points="-4,4 -4,-544 7634.5,-544 7634.5,4 -4,4"/>
<!-- r2595 -->
<g id="node1" class="node">
<title>r2595</title>
<polygon fill="#d3d3d3" stroke="#000000" points="7630.5,-468 7375.5,-468 7375.5,-432 7630.5,-432 7630.5,-468"/>
<text text-anchor="middle" x="7503" y="-446.3" font-family="Times,serif" font-size="14.00" fill="#000000">Rule 2595: Performing a Dependent Action</text>
</g>
<!-- r2124 -->
<g id="node2" class="node">
<title>r2124</title>
<polygon fill="#d3d3d3" stroke="#000000" points="7517,-396 7329,-396 7329,-360 7517,-360 7517,-396"/>
<text text-anchor="middle" x="7423" y="-374.3" font-family="Times,serif" font-size="14.00" fill="#000000">Rule 2124: Agoran Satisfaction</text>
</g>
<!-- r2595&#45;&gt;r2124 -->
<g id="edge1" class="edge">
<title>r2595&#45;&gt;r2124</title>
<path fill="none" stroke="#000000" d="M7482.8126,-431.8314C7473.1486,-423.1337 7461.4204,-412.5783 7450.9184,-403.1265"/>
<polygon fill="#000000" stroke="#000000" points="7452.9553,-400.251 7443.1809,-396.1628 7448.2725,-405.454 7452.9553,-400.251"/>
</g>
<!-- r1728 -->
<g id="node67" class="node">
<title>r1728</title>
<polygon fill="#d3d3d3" stroke="#000000" points="6130.5,-108 5899.5,-108 5899.5,-72 6130.5,-72 6130.5,-108"/>
<text text-anchor="middle" x="6015" y="-86.3" font-family="Times,serif" font-size="14.00" fill="#000000">Rule 1728: Dependent Action Methods</text>
</g>
<!-- r2595&#45;&gt;r1728 -->
<g id="edge2" class="edge">
<title>r2595&#45;&gt;r1728</title>
<path fill="none" stroke="#000000" d="M7521.8094,-431.8323C7531.2487,-421.9292 7542.2846,-409.0533 7550,-396 7571.6782,-359.3235 7583,-348.6041 7583,-306 7583,-306 7583,-306 7583,-234 7583,-200.28 7684.0658,-213.4408 7418,-144 7296.5629,-112.306 6462.4751,-96.6578 6140.9825,-91.7507"/>
<polygon fill="#000000" stroke="#000000" points="6140.7442,-88.2468 6130.6923,-91.5946 6140.638,-95.246 6140.7442,-88.2468"/>
</g>
<!-- r103 -->
<g id="node58" class="node">
<title>r103</title>
<polygon fill="#d3d3d3" stroke="#000000" points="4953,-324 4811,-324 4811,-288 4953,-288 4953,-324"/>
<text text-anchor="middle" x="4882" y="-302.3" font-family="Times,serif" font-size="14.00" fill="#000000">Rule 103: The Speaker</text>
</g>
<!-- r2124&#45;&gt;r103 -->
<g id="edge3" class="edge">
<title>r2124&#45;&gt;r103</title>
<path fill="none" stroke="#000000" d="M7328.7787,-360.9473C7325.8224,-360.6002 7322.8907,-360.2826 7320,-360 6956.3129,-324.4453 6041.3302,-332.141 5676,-324 5415.515,-318.1954 5106.9648,-311.1526 4963.2344,-307.8623"/>
<polygon fill="#000000" stroke="#000000" points="4963.2511,-304.3618 4953.1736,-307.6319 4963.0908,-311.36 4963.2511,-304.3618"/>
</g>
<!-- r2124&#45;&gt;r1728 -->
<g id="edge4" class="edge">
<title>r2124&#45;&gt;r1728</title>
<path fill="none" stroke="#000000" d="M7441.4032,-359.7926C7472.0282,-327.3291 7526.4639,-258.8463 7488,-216 7398.7797,-116.6144 6480.8732,-95.5473 6140.8189,-91.1439"/>
<polygon fill="#000000" stroke="#000000" points="6140.7264,-87.6426 6130.6828,-91.0154 6140.6376,-94.642 6140.7264,-87.6426"/>
</g>
<!-- r2519 -->
<g id="node68" class="node">
<title>r2519</title>
<polygon fill="#d3d3d3" stroke="#000000" points="7478.5,-252 7353.5,-252 7353.5,-216 7478.5,-216 7478.5,-252"/>
<text text-anchor="middle" x="7416" y="-230.3" font-family="Times,serif" font-size="14.00" fill="#000000">Rule 2519: Consent</text>
</g>
<!-- r2124&#45;&gt;r2519 -->
<g id="edge5" class="edge">
<title>r2124&#45;&gt;r2519</title>
<path fill="none" stroke="#000000" d="M7422.1134,-359.7623C7420.9195,-335.201 7418.7829,-291.2474 7417.3783,-262.3541"/>
<polygon fill="#000000" stroke="#000000" points="7420.8609,-261.9079 7416.8794,-252.0896 7413.8691,-262.2478 7420.8609,-261.9079"/>
</g>
<!-- r1586 -->
<g id="node3" class="node">
<title>r1586</title>
<polygon fill="#d3d3d3" stroke="#000000" points="7220.5,-324 6939.5,-324 6939.5,-288 7220.5,-288 7220.5,-324"/>
<text text-anchor="middle" x="7080" y="-302.3" font-family="Times,serif" font-size="14.00" fill="#000000">Rule 1586: Definition and Continuity of Entities</text>
</g>
<!-- r2493 -->
<g id="node6" class="node">
<title>r2493</title>
<polygon fill="#d3d3d3" stroke="#000000" points="6867.5,-252 6722.5,-252 6722.5,-216 6867.5,-216 6867.5,-252"/>
<text text-anchor="middle" x="6795" y="-230.3" font-family="Times,serif" font-size="14.00" fill="#000000">Rule 2493: Regulations</text>
</g>
<!-- r1586&#45;&gt;r2493 -->
<g id="edge6" class="edge">
<title>r1586&#45;&gt;r2493</title>
<path fill="none" stroke="#000000" d="M7008.4503,-287.9243C6968.3034,-277.7819 6918.0692,-265.0912 6876.4207,-254.5694"/>
<polygon fill="#000000" stroke="#000000" points="6877.1318,-251.1392 6866.5791,-252.0831 6875.4172,-257.926 6877.1318,-251.1392"/>
</g>
<!-- r106 -->
<g id="node4" class="node">
<title>r106</title>
<polygon fill="#d3d3d3" stroke="#000000" points="247.5,-324 66.5,-324 66.5,-288 247.5,-288 247.5,-324"/>
<text text-anchor="middle" x="157" y="-302.3" font-family="Times,serif" font-size="14.00" fill="#000000">Rule 106: Adopting Proposals</text>
</g>
<!-- r955 -->
<g id="node11" class="node">
<title>r955</title>
<polygon fill="#d3d3d3" stroke="#000000" points="970,-252 726,-252 726,-216 970,-216 970,-252"/>
<text text-anchor="middle" x="848" y="-230.3" font-family="Times,serif" font-size="14.00" fill="#000000">Rule 955: Determining the Will of Agora</text>
</g>
<!-- r106&#45;&gt;r955 -->
<g id="edge7" class="edge">
<title>r106&#45;&gt;r955</title>
<path fill="none" stroke="#000000" d="M247.5858,-289.197C250.4205,-288.7778 253.2305,-288.3773 256,-288 413.4011,-266.5552 595.5408,-251.3765 715.7674,-242.6813"/>
<polygon fill="#000000" stroke="#000000" points="716.0349,-246.1712 725.7583,-241.9634 715.5331,-239.1892 716.0349,-246.1712"/>
</g>
<!-- r693 -->
<g id="node69" class="node">
<title>r693</title>
<polygon fill="#d3d3d3" stroke="#000000" points="1121.5,-108 950.5,-108 950.5,-72 1121.5,-72 1121.5,-108"/>
<text text-anchor="middle" x="1036" y="-86.3" font-family="Times,serif" font-size="14.00" fill="#000000">Rule 693: Agoran Decisions</text>
</g>
<!-- r106&#45;&gt;r693 -->
<g id="edge8" class="edge">
<title>r106&#45;&gt;r693</title>
<path fill="none" stroke="#000000" d="M185.3538,-287.7981C241.021,-253.078 369.6024,-177.8403 489,-144 571.2652,-120.684 806.4039,-103.5497 940.0729,-95.368"/>
<polygon fill="#000000" stroke="#000000" points="940.5393,-98.8463 950.3089,-94.7469 940.1152,-91.8591 940.5393,-98.8463"/>
</g>
<!-- r2597 -->
<g id="node5" class="node">
<title>r2597</title>
<polygon fill="#d3d3d3" stroke="#000000" points="6317,-324 6153,-324 6153,-288 6317,-288 6317,-324"/>
<text text-anchor="middle" x="6235" y="-302.3" font-family="Times,serif" font-size="14.00" fill="#000000">Rule 2597: Line&#45;item Veto</text>
</g>
<!-- r2597&#45;&gt;r1728 -->
<g id="edge9" class="edge">
<title>r2597&#45;&gt;r1728</title>
<path fill="none" stroke="#000000" d="M6228.6291,-287.9648C6216.2093,-255.1648 6185.8094,-185.3273 6139,-144 6123.7162,-130.5062 6104.535,-119.9537 6085.8585,-111.8996"/>
<polygon fill="#000000" stroke="#000000" points="6087.0363,-108.5995 6076.4568,-108.0292 6084.3715,-115.0725 6087.0363,-108.5995"/>
</g>
<!-- r2597&#45;&gt;r693 -->
<g id="edge10" class="edge">
<title>r2597&#45;&gt;r693</title>
<path fill="none" stroke="#000000" d="M6221.3271,-287.6841C6204.4823,-266.6051 6173.7879,-232.7467 6139,-216 6038.6453,-167.6898 5993.8512,-222.7384 5891,-180 5866.3747,-169.7673 5868.2582,-152.5518 5843,-144 5742.4626,-109.9605 2128.1334,-109.4687 2022,-108 1695.371,-103.48 1307.9218,-95.6991 1131.7427,-92.0286"/>
<polygon fill="#000000" stroke="#000000" points="1131.7941,-88.529 1121.7233,-91.8196 1131.648,-95.5275 1131.7941,-88.529"/>
</g>
<!-- r2138 -->
<g id="node70" class="node">
<title>r2138</title>
<polygon fill="#d3d3d3" stroke="#000000" points="5349,-252 5071,-252 5071,-216 5349,-216 5349,-252"/>
<text text-anchor="middle" x="5210" y="-230.3" font-family="Times,serif" font-size="14.00" fill="#000000">Rule 2138: The Associate Director of Personnel</text>
</g>
<!-- r2597&#45;&gt;r2138 -->
<g id="edge11" class="edge">
<title>r2597&#45;&gt;r2138</title>
<path fill="none" stroke="#000000" d="M6152.6188,-296.3442C6125.3886,-293.3742 6094.92,-290.2882 6067,-288 5786.1537,-264.983 5715.1271,-271.2868 5434,-252 5409.8823,-250.3454 5384.3167,-248.4372 5359.417,-246.4952"/>
<polygon fill="#000000" stroke="#000000" points="5359.4117,-242.9841 5349.1686,-245.6912 5358.8642,-249.9627 5359.4117,-242.9841"/>
</g>
<!-- r2505 -->
<g id="node71" class="node">
<title>r2505</title>
<polygon fill="#d3d3d3" stroke="#000000" points="6403,-252 6229,-252 6229,-216 6403,-216 6403,-252"/>
<text text-anchor="middle" x="6316" y="-230.3" font-family="Times,serif" font-size="14.00" fill="#000000">Rule 2505: Random Choices</text>
</g>
<!-- r2597&#45;&gt;r2505 -->
<g id="edge12" class="edge">
<title>r2597&#45;&gt;r2505</title>
<path fill="none" stroke="#000000" d="M6255.4397,-287.8314C6265.3205,-279.0485 6277.3324,-268.3712 6288.045,-258.8489"/>
<polygon fill="#000000" stroke="#000000" points="6290.418,-261.4224 6295.5668,-252.1628 6285.7674,-256.1906 6290.418,-261.4224"/>
</g>
<!-- r2493&#45;&gt;r1728 -->
<g id="edge13" class="edge">
<title>r2493&#45;&gt;r1728</title>
<path fill="none" stroke="#000000" d="M6772.3933,-215.7321C6744.532,-194.3617 6694.8575,-159.8863 6646,-144 6555.2602,-114.4954 6297.513,-100.1763 6140.9252,-94.0138"/>
<polygon fill="#000000" stroke="#000000" points="6140.8883,-90.5099 6130.7602,-93.6197 6140.617,-97.5046 6140.8883,-90.5099"/>
</g>
<!-- r2221 -->
<g id="node7" class="node">
<title>r2221</title>
<polygon fill="#d3d3d3" stroke="#000000" points="4592.5,-180 4449.5,-180 4449.5,-144 4592.5,-144 4592.5,-180"/>
<text text-anchor="middle" x="4521" y="-158.3" font-family="Times,serif" font-size="14.00" fill="#000000">Rule 2221: Cleanliness</text>
</g>
<!-- r2221&#45;&gt;r1728 -->
<g id="edge14" class="edge">
<title>r2221&#45;&gt;r1728</title>
<path fill="none" stroke="#000000" d="M4592.6455,-146.0651C4597.4888,-145.2782 4602.3066,-144.577 4607,-144 4852.9496,-113.7623 5591.4552,-97.564 5888.8615,-92.1217"/>
<polygon fill="#000000" stroke="#000000" points="5889.3189,-95.6141 5899.2535,-91.9326 5889.1915,-88.6152 5889.3189,-95.6141"/>
</g>
<!-- r2599 -->
<g id="node8" class="node">
<title>r2599</title>
<polygon fill="#d3d3d3" stroke="#000000" points="6712.5,-324 6573.5,-324 6573.5,-288 6712.5,-288 6712.5,-324"/>
<text text-anchor="middle" x="6643" y="-302.3" font-family="Times,serif" font-size="14.00" fill="#000000">Rule 2599: The Editor</text>
</g>
<!-- r2599&#45;&gt;r2493 -->
<g id="edge15" class="edge">
<title>r2599&#45;&gt;r2493</title>
<path fill="none" stroke="#000000" d="M6681.356,-287.8314C6701.5044,-278.2874 6726.3752,-266.5065 6747.7083,-256.4013"/>
<polygon fill="#000000" stroke="#000000" points="6749.3807,-259.482 6756.9198,-252.038 6746.3841,-253.1558 6749.3807,-259.482"/>
</g>
<!-- r2557 -->
<g id="node24" class="node">
<title>r2557</title>
<polygon fill="#d3d3d3" stroke="#000000" points="3740.5,-252 3537.5,-252 3537.5,-216 3740.5,-216 3740.5,-252"/>
<text text-anchor="middle" x="3639" y="-230.3" font-family="Times,serif" font-size="14.00" fill="#000000">Rule 2557: Sentencing Guidelines</text>
</g>
<!-- r2599&#45;&gt;r2557 -->
<g id="edge16" class="edge">
<title>r2599&#45;&gt;r2557</title>
<path fill="none" stroke="#000000" d="M6573.4685,-301.2034C6509.2689,-296.9764 6411.2495,-291.0328 6326,-288 5215.4762,-248.4929 4935.535,-313.2864 3826,-252 3801.6711,-250.6562 3775.6166,-248.5638 3750.9154,-246.2741"/>
<polygon fill="#000000" stroke="#000000" points="3751.0756,-242.7737 3740.7908,-245.3179 3750.4174,-249.7427 3751.0756,-242.7737"/>
</g>
<!-- r2599&#45;&gt;r1728 -->
<g id="edge17" class="edge">
<title>r2599&#45;&gt;r1728</title>
<path fill="none" stroke="#000000" d="M6643.8987,-287.9477C6644.506,-253.8261 6640.3996,-180.0624 6597,-144 6562.7525,-115.5424 6301.8758,-100.7228 6141.2368,-94.2175"/>
<polygon fill="#000000" stroke="#000000" points="6140.9359,-90.7028 6130.8042,-93.801 6140.6566,-97.6973 6140.9359,-90.7028"/>
</g>
<!-- r107 -->
<g id="node9" class="node">
<title>r107</title>
<polygon fill="#d3d3d3" stroke="#000000" points="1305,-324 1081,-324 1081,-288 1305,-288 1305,-324"/>
<text text-anchor="middle" x="1193" y="-302.3" font-family="Times,serif" font-size="14.00" fill="#000000">Rule 107: Initiating Agoran Decisions</text>
</g>
<!-- r107&#45;&gt;r955 -->
<g id="edge18" class="edge">
<title>r107&#45;&gt;r955</title>
<path fill="none" stroke="#000000" d="M1106.3872,-287.9243C1057.0796,-277.634 995.2022,-264.7205 944.3628,-254.1105"/>
<polygon fill="#000000" stroke="#000000" points="944.8533,-250.6375 934.3491,-252.0207 943.4231,-257.4899 944.8533,-250.6375"/>
</g>
<!-- r107&#45;&gt;r1728 -->
<g id="edge19" class="edge">
<title>r107&#45;&gt;r1728</title>
<path fill="none" stroke="#000000" d="M1283.0085,-287.9634C1448.4641,-254.7681 1786.4549,-186.7559 1812,-180 1861.7307,-166.8478 1871.256,-152.436 1922,-144 2122.1316,-110.7289 5222.7856,-93.8437 5889.3856,-90.588"/>
<polygon fill="#000000" stroke="#000000" points="5889.5139,-94.0875 5899.4967,-90.5388 5889.4797,-87.0876 5889.5139,-94.0875"/>
</g>
<!-- r107&#45;&gt;r693 -->
<g id="edge20" class="edge">
<title>r107&#45;&gt;r693</title>
<path fill="none" stroke="#000000" d="M1166.3394,-287.851C1136.056,-265.839 1087.313,-225.9277 1060,-180 1048.6848,-160.9731 1042.6082,-136.5596 1039.4032,-117.9612"/>
<polygon fill="#000000" stroke="#000000" points="1042.8551,-117.3802 1037.8666,-108.0333 1035.9375,-118.451 1042.8551,-117.3802"/>
</g>
<!-- r683 -->
<g id="node10" class="node">
<title>r683</title>
<polygon fill="#d3d3d3" stroke="#000000" points="1063,-324 833,-324 833,-288 1063,-288 1063,-324"/>
<text text-anchor="middle" x="948" y="-302.3" font-family="Times,serif" font-size="14.00" fill="#000000">Rule 683: Voting on Agoran Decisions</text>
</g>
<!-- r683&#45;&gt;r955 -->
<g id="edge21" class="edge">
<title>r683&#45;&gt;r955</title>
<path fill="none" stroke="#000000" d="M922.7658,-287.8314C910.212,-278.7927 894.8717,-267.7476 881.3609,-258.0198"/>
<polygon fill="#000000" stroke="#000000" points="883.3866,-255.1655 873.2261,-252.1628 879.2964,-260.8463 883.3866,-255.1655"/>
</g>
<!-- r683&#45;&gt;r1728 -->
<g id="edge22" class="edge">
<title>r683&#45;&gt;r1728</title>
<path fill="none" stroke="#000000" d="M1013.6938,-287.9801C1157.2351,-248.9379 1495.4032,-158.8496 1613,-144 1830.4398,-116.5427 5193.0857,-94.932 5889.3915,-90.7383"/>
<polygon fill="#000000" stroke="#000000" points="5889.4694,-94.238 5899.4481,-90.6778 5889.4272,-87.2381 5889.4694,-94.238"/>
</g>
<!-- r683&#45;&gt;r693 -->
<g id="edge23" class="edge">
<title>r683&#45;&gt;r693</title>
<path fill="none" stroke="#000000" d="M959.4732,-287.9463C965.7269,-277.6571 973.3253,-264.3822 979,-252 999.8482,-206.5093 1017.8598,-151.0354 1027.7931,-118.2215"/>
<polygon fill="#000000" stroke="#000000" points="1031.2168,-118.9888 1030.7278,-108.4052 1024.51,-116.9837 1031.2168,-118.9888"/>
</g>
<!-- r879 -->
<g id="node12" class="node">
<title>r879</title>
<polygon fill="#d3d3d3" stroke="#000000" points="669.5,-180 550.5,-180 550.5,-144 669.5,-144 669.5,-180"/>
<text text-anchor="middle" x="610" y="-158.3" font-family="Times,serif" font-size="14.00" fill="#000000">Rule 879: Quorum</text>
</g>
<!-- r955&#45;&gt;r879 -->
<g id="edge24" class="edge">
<title>r955&#45;&gt;r879</title>
<path fill="none" stroke="#000000" d="M788.2498,-215.9243C755.2894,-205.9531 714.1872,-193.5188 679.7605,-183.104"/>
<polygon fill="#000000" stroke="#000000" points="680.3599,-179.6288 669.7748,-180.0831 678.3329,-186.3289 680.3599,-179.6288"/>
</g>
<!-- r2422 -->
<g id="node13" class="node">
<title>r2422</title>
<polygon fill="#d3d3d3" stroke="#000000" points="2856.5,-180 2689.5,-180 2689.5,-144 2856.5,-144 2856.5,-180"/>
<text text-anchor="middle" x="2773" y="-158.3" font-family="Times,serif" font-size="14.00" fill="#000000">Rule 2422: Voting Strength</text>
</g>
<!-- r955&#45;&gt;r2422 -->
<g id="edge25" class="edge">
<title>r955&#45;&gt;r2422</title>
<path fill="none" stroke="#000000" d="M970.1308,-230.9077C1239.2934,-223.8733 1903.8643,-205.3024 2460,-180 2533.6542,-176.649 2616.9976,-171.8045 2679.1543,-167.9853"/>
<polygon fill="#000000" stroke="#000000" points="2679.5673,-171.4666 2689.3328,-167.3574 2679.1363,-164.4799 2679.5673,-171.4666"/>
</g>
<!-- r955&#45;&gt;r693 -->
<g id="edge26" class="edge">
<title>r955&#45;&gt;r693</title>
<path fill="none" stroke="#000000" d="M871.8103,-215.7623C905.4303,-190.0108 966.8812,-142.942 1004.3224,-114.2637"/>
<polygon fill="#000000" stroke="#000000" points="1006.5725,-116.949 1012.383,-108.0896 1002.3159,-111.3918 1006.5725,-116.949"/>
</g>
<!-- r879&#45;&gt;r693 -->
<g id="edge27" class="edge">
<title>r879&#45;&gt;r693</title>
<path fill="none" stroke="#000000" d="M669.6763,-147.0155C674.5113,-145.9445 679.3307,-144.9242 684,-144 770.1315,-126.951 869.0269,-112.1995 940.0181,-102.4432"/>
<polygon fill="#000000" stroke="#000000" points="940.8508,-105.8621 950.2849,-101.0404 939.9031,-98.9265 940.8508,-105.8621"/>
</g>
<!-- r2422&#45;&gt;r693 -->
<g id="edge28" class="edge">
<title>r2422&#45;&gt;r693</title>
<path fill="none" stroke="#000000" d="M2689.3281,-156.7429C2626.3001,-152.8911 2537.7466,-147.7093 2460,-144 1960.4661,-120.1672 1361.9502,-100.3031 1132.2297,-92.9999"/>
<polygon fill="#000000" stroke="#000000" points="1132.0068,-89.4912 1121.9008,-92.6721 1131.7847,-96.4876 1132.0068,-89.4912"/>
</g>
<!-- r2127 -->
<g id="node14" class="node">
<title>r2127</title>
<polygon fill="#d3d3d3" stroke="#000000" points="1740.5,-324 1561.5,-324 1561.5,-288 1740.5,-288 1740.5,-324"/>
<text text-anchor="middle" x="1651" y="-302.3" font-family="Times,serif" font-size="14.00" fill="#000000">Rule 2127: Conditional Votes</text>
</g>
<!-- r2127&#45;&gt;r693 -->
<g id="edge29" class="edge">
<title>r2127&#45;&gt;r693</title>
<path fill="none" stroke="#000000" d="M1561.4129,-294.2404C1423.6142,-274.7662 1167.723,-232.6887 1093,-180 1071.1773,-164.6123 1055.8398,-137.9558 1046.6136,-117.635"/>
<polygon fill="#000000" stroke="#000000" points="1049.741,-116.048 1042.5736,-108.2455 1043.311,-118.8146 1049.741,-116.048"/>
</g>
<!-- r2518 -->
<g id="node72" class="node">
<title>r2518</title>
<polygon fill="#d3d3d3" stroke="#000000" points="2305.5,-252 2154.5,-252 2154.5,-216 2305.5,-216 2305.5,-252"/>
<text text-anchor="middle" x="2230" y="-230.3" font-family="Times,serif" font-size="14.00" fill="#000000">Rule 2518: Determinacy</text>
</g>
<!-- r2127&#45;&gt;r2518 -->
<g id="edge30" class="edge">
<title>r2127&#45;&gt;r2518</title>
<path fill="none" stroke="#000000" d="M1740.8583,-293.8C1756.5616,-291.7806 1772.7494,-289.7704 1788,-288 1943.159,-269.9881 1985.6985,-276.2806 2143.9791,-252.0649"/>
<polygon fill="#000000" stroke="#000000" points="2144.7278,-255.4908 2154.0752,-250.5033 2143.6577,-248.5731 2144.7278,-255.4908"/>
</g>
<!-- r2168 -->
<g id="node15" class="node">
<title>r2168</title>
<polygon fill="#d3d3d3" stroke="#000000" points="814.5,-324 581.5,-324 581.5,-288 814.5,-288 814.5,-324"/>
<text text-anchor="middle" x="698" y="-302.3" font-family="Times,serif" font-size="14.00" fill="#000000">Rule 2168: Extending the voting period</text>
</g>
<!-- r2168&#45;&gt;r955 -->
<g id="edge31" class="edge">
<title>r2168&#45;&gt;r955</title>
<path fill="none" stroke="#000000" d="M735.8513,-287.8314C755.7346,-278.2874 780.2782,-266.5065 801.3305,-256.4013"/>
<polygon fill="#000000" stroke="#000000" points="802.9202,-259.5207 810.4209,-252.038 799.891,-253.21 802.9202,-259.5207"/>
</g>
<!-- r2168&#45;&gt;r693 -->
<g id="edge32" class="edge">
<title>r2168&#45;&gt;r693</title>
<path fill="none" stroke="#000000" d="M697.0515,-287.9597C696.9842,-268.0824 699.8952,-236.2525 717,-216 772.9603,-149.7418 868.5032,-118.0922 940.4741,-103.118"/>
<polygon fill="#000000" stroke="#000000" points="941.3501,-106.5121 950.4665,-101.1139 939.9735,-99.6488 941.3501,-106.5121"/>
</g>
<!-- r1950 -->
<g id="node16" class="node">
<title>r1950</title>
<polygon fill="#d3d3d3" stroke="#000000" points="524.5,-324 265.5,-324 265.5,-288 524.5,-288 524.5,-324"/>
<text text-anchor="middle" x="395" y="-302.3" font-family="Times,serif" font-size="14.00" fill="#000000">Rule 1950: Decisions with Adoption Indices</text>
</g>
<!-- r1950&#45;&gt;r955 -->
<g id="edge33" class="edge">
<title>r1950&#45;&gt;r955</title>
<path fill="none" stroke="#000000" d="M508.4343,-287.9707C574.1187,-277.5308 656.8654,-264.379 724.2298,-253.6721"/>
<polygon fill="#000000" stroke="#000000" points="725.1516,-257.0696 734.4782,-252.0432 724.0527,-250.1564 725.1516,-257.0696"/>
</g>
<!-- r1950&#45;&gt;r693 -->
<g id="edge34" class="edge">
<title>r1950&#45;&gt;r693</title>
<path fill="none" stroke="#000000" d="M405.0369,-287.9841C425.4831,-253.2406 475.6125,-177.4602 541,-144 608.5543,-109.431 816.2596,-96.8795 940.113,-92.4048"/>
<polygon fill="#000000" stroke="#000000" points="940.4833,-95.8941 950.3547,-92.0463 940.2384,-88.8984 940.4833,-95.8941"/>
</g>
<!-- r2034 -->
<g id="node17" class="node">
<title>r2034</title>
<polygon fill="#d3d3d3" stroke="#000000" points="1413.5,-180 1102.5,-180 1102.5,-144 1413.5,-144 1413.5,-180"/>
<text text-anchor="middle" x="1258" y="-158.3" font-family="Times,serif" font-size="14.00" fill="#000000">Rule 2034: Vote Protection and Cutoff for Challenges</text>
</g>
<!-- r2034&#45;&gt;r693 -->
<g id="edge35" class="edge">
<title>r2034&#45;&gt;r693</title>
<path fill="none" stroke="#000000" d="M1202.2666,-143.9243C1171.654,-133.9959 1133.5119,-121.6255 1101.4845,-111.2382"/>
<polygon fill="#000000" stroke="#000000" points="1102.3484,-107.839 1091.7564,-108.0831 1100.1888,-114.4975 1102.3484,-107.839"/>
</g>
<!-- r2573 -->
<g id="node18" class="node">
<title>r2573</title>
<polygon fill="#d3d3d3" stroke="#000000" points="4804.5,-180 4649.5,-180 4649.5,-144 4804.5,-144 4804.5,-180"/>
<text text-anchor="middle" x="4727" y="-158.3" font-family="Times,serif" font-size="14.00" fill="#000000">Rule 2573: Impeachment</text>
</g>
<!-- r2573&#45;&gt;r1728 -->
<g id="edge36" class="edge">
<title>r2573&#45;&gt;r1728</title>
<path fill="none" stroke="#000000" d="M4804.6716,-145.9642C4809.5085,-145.2261 4814.3137,-144.5611 4819,-144 5023.0375,-119.57 5625.4076,-100.6631 5889.0416,-93.3221"/>
<polygon fill="#000000" stroke="#000000" points="5889.5256,-96.8101 5899.4247,-93.0341 5889.3314,-89.8128 5889.5256,-96.8101"/>
</g>
<!-- r2472 -->
<g id="node19" class="node">
<title>r2472</title>
<polygon fill="#d3d3d3" stroke="#000000" points="4124.5,-396 3913.5,-396 3913.5,-360 4124.5,-360 4124.5,-396"/>
<text text-anchor="middle" x="4019" y="-374.3" font-family="Times,serif" font-size="14.00" fill="#000000">Rule 2472: Office Incompatibilities</text>
</g>
<!-- r2555 -->
<g id="node22" class="node">
<title>r2555</title>
<polygon fill="#d3d3d3" stroke="#000000" points="2983.5,-180 2874.5,-180 2874.5,-144 2983.5,-144 2983.5,-180"/>
<text text-anchor="middle" x="2929" y="-158.3" font-family="Times,serif" font-size="14.00" fill="#000000">Rule 2555: Blots</text>
</g>
<!-- r2472&#45;&gt;r2555 -->
<g id="edge37" class="edge">
<title>r2472&#45;&gt;r2555</title>
<path fill="none" stroke="#000000" d="M3913.4931,-375.244C3628.9988,-366.7155 2862.4785,-336.0717 2789,-252 2778.4708,-239.9528 2779.9481,-229.1933 2789,-216 2793.8161,-208.9805 2830.2123,-195.0512 2864.6842,-183.0984"/>
<polygon fill="#000000" stroke="#000000" points="2866.0069,-186.3448 2874.3281,-179.7868 2863.7335,-179.7243 2866.0069,-186.3448"/>
</g>
<!-- r2472&#45;&gt;r103 -->
<g id="edge38" class="edge">
<title>r2472&#45;&gt;r103</title>
<path fill="none" stroke="#000000" d="M4124.5586,-375.335C4274.6294,-370.4899 4557.9868,-357.4359 4797,-324 4798.2605,-323.8237 4799.5302,-323.6394 4800.8071,-323.4479"/>
<polygon fill="#000000" stroke="#000000" points="4801.392,-326.8989 4810.7067,-321.8505 4800.2768,-319.9883 4801.392,-326.8989"/>
</g>
<!-- r2423 -->
<g id="node60" class="node">
<title>r2423</title>
<polygon fill="#d3d3d3" stroke="#000000" points="4026.5,-252 3835.5,-252 3835.5,-216 4026.5,-216 4026.5,-252"/>
<text text-anchor="middle" x="3931" y="-230.3" font-family="Times,serif" font-size="14.00" fill="#000000">Rule 2423: First Among Equals</text>
</g>
<!-- r2472&#45;&gt;r2423 -->
<g id="edge39" class="edge">
<title>r2472&#45;&gt;r2423</title>
<path fill="none" stroke="#000000" d="M4018.751,-359.7429C4017.7072,-340.5367 4013.7695,-310.09 4000,-288 3992.7542,-276.3759 3982.0688,-266.248 3971.2599,-258.0021"/>
<polygon fill="#000000" stroke="#000000" points="3973.1848,-255.0751 3963.0252,-252.0696 3969.093,-260.7548 3973.1848,-255.0751"/>
</g>
<!-- r2472&#45;&gt;r1728 -->
<g id="edge40" class="edge">
<title>r2472&#45;&gt;r1728</title>
<path fill="none" stroke="#000000" d="M3913.4156,-377.176C3500.8925,-373.7096 2018.9348,-358.8476 1985,-324 1970.313,-308.9179 1975.8788,-235.1289 1993,-216 2090.2223,-107.3769 2168.2351,-161.1547 2313,-144 2673.6039,-101.2684 5282.1076,-91.9005 5889.046,-90.2908"/>
<polygon fill="#000000" stroke="#000000" points="5889.145,-93.7906 5899.1358,-90.2643 5889.1266,-86.7907 5889.145,-93.7906"/>
</g>
<!-- r2472&#45;&gt;r2138 -->
<g id="edge41" class="edge">
<title>r2472&#45;&gt;r2138</title>
<path fill="none" stroke="#000000" d="M4124.534,-374.6551C4293.1326,-368.5185 4615.4925,-353.3149 4726,-324 4762.1261,-314.4166 4766.1529,-298.5795 4802,-288 4814.7014,-284.2515 4949.5618,-266.7298 5060.8116,-252.6472"/>
<polygon fill="#000000" stroke="#000000" points="5061.3341,-256.1091 5070.816,-251.382 5060.4558,-249.1644 5061.3341,-256.1091"/>
</g>
<!-- r2202 -->
<g id="node20" class="node">
<title>r2202</title>
<polygon fill="#d3d3d3" stroke="#000000" points="3581,-324 3331,-324 3331,-288 3581,-288 3581,-324"/>
<text text-anchor="middle" x="3456" y="-302.3" font-family="Times,serif" font-size="14.00" fill="#000000">Rule 2202: Ratification Without Objection</text>
</g>
<!-- r2202&#45;&gt;r2557 -->
<g id="edge42" class="edge">
<title>r2202&#45;&gt;r2557</title>
<path fill="none" stroke="#000000" d="M3502.1786,-287.8314C3526.9801,-278.0734 3557.725,-265.977 3583.7843,-255.7242"/>
<polygon fill="#000000" stroke="#000000" points="3585.1292,-258.9563 3593.1534,-252.038 3582.5663,-252.4423 3585.1292,-258.9563"/>
</g>
<!-- r2202&#45;&gt;r1728 -->
<g id="edge43" class="edge">
<title>r2202&#45;&gt;r1728</title>
<path fill="none" stroke="#000000" d="M3468.3413,-287.8867C3484.6718,-264.4285 3513.1249,-225.4231 3528,-216 3644.9289,-141.9275 3693.7338,-161.8074 3831,-144 4034.5064,-117.5993 5454.8122,-97.2433 5889.1231,-91.58"/>
<polygon fill="#000000" stroke="#000000" points="5889.2443,-95.0788 5899.1979,-91.449 5889.1532,-88.0794 5889.2443,-95.0788"/>
</g>
<!-- r2202&#45;&gt;r2518 -->
<g id="edge44" class="edge">
<title>r2202&#45;&gt;r2518</title>
<path fill="none" stroke="#000000" d="M3330.826,-303.7972C3125.9671,-299.3116 2706.4923,-286.4374 2353,-252 2340.8815,-250.8194 2328.1304,-249.2849 2315.6143,-247.6099"/>
<polygon fill="#000000" stroke="#000000" points="2316.0267,-244.1338 2305.6435,-246.2405 2315.0742,-251.0687 2316.0267,-244.1338"/>
</g>
<!-- r1551 -->
<g id="node73" class="node">
<title>r1551</title>
<polygon fill="#d3d3d3" stroke="#000000" points="3481,-252 3337,-252 3337,-216 3481,-216 3481,-252"/>
<text text-anchor="middle" x="3409" y="-230.3" font-family="Times,serif" font-size="14.00" fill="#000000">Rule 1551: Ratification</text>
</g>
<!-- r2202&#45;&gt;r1551 -->
<g id="edge45" class="edge">
<title>r2202&#45;&gt;r1551</title>
<path fill="none" stroke="#000000" d="M3444.1399,-287.8314C3438.8371,-279.7079 3432.4763,-269.9637 3426.6327,-261.0118"/>
<polygon fill="#000000" stroke="#000000" points="3429.4169,-258.8739 3421.0198,-252.4133 3423.5552,-262.7003 3429.4169,-258.8739"/>
</g>
<!-- r2556 -->
<g id="node21" class="node">
<title>r2556</title>
<polygon fill="#d3d3d3" stroke="#000000" points="4454.5,-324 4325.5,-324 4325.5,-288 4454.5,-288 4454.5,-324"/>
<text text-anchor="middle" x="4390" y="-302.3" font-family="Times,serif" font-size="14.00" fill="#000000">Rule 2556: Penalties</text>
</g>
<!-- r2556&#45;&gt;r2422 -->
<g id="edge46" class="edge">
<title>r2556&#45;&gt;r2422</title>
<path fill="none" stroke="#000000" d="M4325.1036,-289.8494C4322.0316,-289.1998 4318.9853,-288.5793 4316,-288 4207.0939,-266.8666 4167.051,-303.8956 4069,-252 4049.8162,-241.8466 4055.7311,-225.0441 4036,-216 3920.2664,-162.9514 3034.5439,-193.1465 2866.8461,-179.9225"/>
<polygon fill="#000000" stroke="#000000" points="2866.9312,-176.4152 2856.6476,-178.964 2866.2762,-183.3845 2866.9312,-176.4152"/>
</g>
<!-- r2556&#45;&gt;r2555 -->
<g id="edge47" class="edge">
<title>r2556&#45;&gt;r2555</title>
<path fill="none" stroke="#000000" d="M4325.4779,-290.0655C4322.277,-289.3503 4319.1043,-288.6577 4316,-288 4228.0719,-269.3701 4199.3865,-287.9288 4117,-252 4092.5566,-241.3402 4094.0916,-225.029 4069,-216 3967.9553,-179.6397 3220.4972,-166.1365 2993.9176,-162.8533"/>
<polygon fill="#000000" stroke="#000000" points="2993.8929,-159.3527 2983.8438,-162.7091 2993.7926,-166.352 2993.8929,-159.3527"/>
</g>
<!-- r2449 -->
<g id="node45" class="node">
<title>r2449</title>
<polygon fill="#d3d3d3" stroke="#000000" points="5627.5,-252 5442.5,-252 5442.5,-216 5627.5,-216 5627.5,-252"/>
<text text-anchor="middle" x="5535" y="-230.3" font-family="Times,serif" font-size="14.00" fill="#000000">Rule 2449: Winning the Game</text>
</g>
<!-- r2556&#45;&gt;r2449 -->
<g id="edge48" class="edge">
<title>r2556&#45;&gt;r2449</title>
<path fill="none" stroke="#000000" d="M4454.6812,-294.2808C4470.1391,-291.8475 4486.6185,-289.554 4502,-288 4880.8521,-249.7234 4978.1973,-279.2744 5358,-252 5382.0991,-250.2694 5407.9965,-247.9158 5432.3433,-245.4815"/>
<polygon fill="#000000" stroke="#000000" points="5432.7131,-248.9621 5442.3095,-244.4722 5432.0077,-241.9977 5432.7131,-248.9621"/>
</g>
<!-- r2556&#45;&gt;r1728 -->
<g id="edge49" class="edge">
<title>r2556&#45;&gt;r1728</title>
<path fill="none" stroke="#000000" d="M4389.5137,-287.9216C4389.6853,-253.4153 4395.5811,-178.5311 4441,-144 4498.2966,-100.4384 5526.4558,-92.0041 5889.4047,-90.3825"/>
<polygon fill="#000000" stroke="#000000" points="5889.44,-93.8825 5899.4246,-90.3388 5889.4093,-86.8826 5889.44,-93.8825"/>
</g>
<!-- r2556&#45;&gt;r693 -->
<g id="edge50" class="edge">
<title>r2556&#45;&gt;r693</title>
<path fill="none" stroke="#000000" d="M4325.4487,-290.1976C4322.2555,-289.4475 4319.0925,-288.7113 4316,-288 4242.4284,-271.0773 4217.8026,-285.196 4150,-252 4127.6144,-241.0401 4130.1396,-225.2625 4107,-216 4049.3719,-192.9323 3054.0077,-146.857 2992,-144 2278.0022,-111.1026 1416.403,-95.8045 1132.1118,-91.3983"/>
<polygon fill="#000000" stroke="#000000" points="1131.8907,-87.8946 1121.838,-91.2399 1131.7828,-94.8937 1131.8907,-87.8946"/>
</g>
<!-- r2577 -->
<g id="node29" class="node">
<title>r2577</title>
<polygon fill="#d3d3d3" stroke="#000000" points="2629,-108 2473,-108 2473,-72 2629,-72 2629,-108"/>
<text text-anchor="middle" x="2551" y="-86.3" font-family="Times,serif" font-size="14.00" fill="#000000">Rule 2577: Asset Actions</text>
</g>
<!-- r2555&#45;&gt;r2577 -->
<g id="edge51" class="edge">
<title>r2555&#45;&gt;r2577</title>
<path fill="none" stroke="#000000" d="M2874.2827,-146.2074C2871.1502,-145.4291 2868.0398,-144.6869 2865,-144 2789.3314,-126.9011 2702.3309,-112.3302 2639.1251,-102.6493"/>
<polygon fill="#000000" stroke="#000000" points="2639.6033,-99.1818 2629.1906,-101.1379 2638.5504,-106.1022 2639.6033,-99.1818"/>
</g>
<!-- r2578 -->
<g id="node30" class="node">
<title>r2578</title>
<polygon fill="#d3d3d3" stroke="#000000" points="2170.5,-108 2031.5,-108 2031.5,-72 2170.5,-72 2170.5,-108"/>
<text text-anchor="middle" x="2101" y="-86.3" font-family="Times,serif" font-size="14.00" fill="#000000">Rule 2578: Currencies</text>
</g>
<!-- r2555&#45;&gt;r2578 -->
<g id="edge52" class="edge">
<title>r2555&#45;&gt;r2578</title>
<path fill="none" stroke="#000000" d="M2874.3558,-145.8415C2871.2047,-145.1565 2868.0702,-144.5345 2865,-144 2735.2591,-121.413 2348.899,-101.4504 2180.7084,-93.5734"/>
<polygon fill="#000000" stroke="#000000" points="2180.8301,-90.0753 2170.6779,-93.1058 2180.5041,-97.0677 2180.8301,-90.0753"/>
</g>
<!-- r2479 -->
<g id="node23" class="node">
<title>r2479</title>
<polygon fill="#d3d3d3" stroke="#000000" points="3005.5,-252 2842.5,-252 2842.5,-216 3005.5,-216 3005.5,-252"/>
<text text-anchor="middle" x="2924" y="-230.3" font-family="Times,serif" font-size="14.00" fill="#000000">Rule 2479: Official Justice</text>
</g>
<!-- r2479&#45;&gt;r2555 -->
<g id="edge53" class="edge">
<title>r2479&#45;&gt;r2555</title>
<path fill="none" stroke="#000000" d="M2925.2617,-215.8314C2925.7965,-208.131 2926.4323,-198.9743 2927.0266,-190.4166"/>
<polygon fill="#000000" stroke="#000000" points="2930.52,-190.6317 2927.7213,-180.4133 2923.5368,-190.1467 2930.52,-190.6317"/>
</g>
<!-- r2557&#45;&gt;r2555 -->
<g id="edge54" class="edge">
<title>r2557&#45;&gt;r2555</title>
<path fill="none" stroke="#000000" d="M3537.2463,-221.3739C3521.4364,-219.5086 3505.2834,-217.6585 3490,-216 3310.4277,-196.5137 3098.1208,-177.0512 2993.6656,-167.7108"/>
<polygon fill="#000000" stroke="#000000" points="2993.8662,-164.2149 2983.5946,-166.8118 2993.2437,-171.1872 2993.8662,-164.2149"/>
</g>
<!-- r2531 -->
<g id="node25" class="node">
<title>r2531</title>
<polygon fill="#d3d3d3" stroke="#000000" points="4717,-324 4511,-324 4511,-288 4717,-288 4717,-324"/>
<text text-anchor="middle" x="4614" y="-302.3" font-family="Times,serif" font-size="14.00" fill="#000000">Rule 2531: Referee Accountability</text>
</g>
<!-- r2531&#45;&gt;r2555 -->
<g id="edge55" class="edge">
<title>r2531&#45;&gt;r2555</title>
<path fill="none" stroke="#000000" d="M4569.0283,-287.8572C4513.1204,-266.2648 4414.2747,-231.222 4326,-216 4064.9821,-170.9903 3233.6096,-163.4772 2994.1286,-162.2402"/>
<polygon fill="#000000" stroke="#000000" points="2993.8617,-158.7389 2983.8444,-162.189 2993.8268,-165.7388 2993.8617,-158.7389"/>
</g>
<!-- r2531&#45;&gt;r2557 -->
<g id="edge56" class="edge">
<title>r2531&#45;&gt;r2557</title>
<path fill="none" stroke="#000000" d="M4510.8051,-292.7498C4495.1406,-290.9897 4479.1538,-289.3354 4464,-288 4181.0898,-263.0686 4109.1833,-273.6101 3826,-252 3801.7047,-250.146 3775.6641,-247.8412 3750.9659,-245.5065"/>
<polygon fill="#000000" stroke="#000000" points="3751.129,-242.0063 3740.8419,-244.541 3750.4644,-248.9747 3751.129,-242.0063"/>
</g>
<!-- r2531&#45;&gt;r1728 -->
<g id="edge57" class="edge">
<title>r2531&#45;&gt;r1728</title>
<path fill="none" stroke="#000000" d="M4585.568,-287.9601C4573.7772,-278.7801 4561.3796,-266.4872 4555,-252 4548.5518,-237.3569 4547.9172,-230.3469 4555,-216 4566.6479,-192.4061 4581.8671,-196.9414 4602,-180 4620.0491,-164.812 4619.2034,-153.0195 4641,-144 4698.0712,-120.3836 5561.0423,-99.6559 5889.4363,-92.5838"/>
<polygon fill="#000000" stroke="#000000" points="5889.5467,-96.0824 5899.4693,-92.3684 5889.3964,-89.084 5889.5467,-96.0824"/>
</g>
<!-- r2531&#45;&gt;r2138 -->
<g id="edge58" class="edge">
<title>r2531&#45;&gt;r2138</title>
<path fill="none" stroke="#000000" d="M4717.2082,-293.5915C4805.6189,-282.9547 4936.6568,-267.1719 5060.8794,-252.1351"/>
<polygon fill="#000000" stroke="#000000" points="5061.4489,-255.5918 5070.9557,-250.9152 5060.6075,-248.6425 5061.4489,-255.5918"/>
</g>
<!-- r911 -->
<g id="node26" class="node">
<title>r911</title>
<polygon fill="#d3d3d3" stroke="#000000" points="1505,-324 1323,-324 1323,-288 1505,-288 1505,-324"/>
<text text-anchor="middle" x="1414" y="-302.3" font-family="Times,serif" font-size="14.00" fill="#000000">Rule 911: Motions and Moots</text>
</g>
<!-- r911&#45;&gt;r955 -->
<g id="edge59" class="edge">
<title>r911&#45;&gt;r955</title>
<path fill="none" stroke="#000000" d="M1322.7531,-289.3321C1319.8029,-288.871 1316.8793,-288.4255 1314,-288 1201.8651,-271.4274 1073.9209,-256.9138 980.5016,-247.1188"/>
<polygon fill="#000000" stroke="#000000" points="980.7392,-243.6246 970.4297,-246.067 980.0121,-250.5868 980.7392,-243.6246"/>
</g>
<!-- r911&#45;&gt;r1728 -->
<g id="edge60" class="edge">
<title>r911&#45;&gt;r1728</title>
<path fill="none" stroke="#000000" d="M1490.8382,-287.9394C1590.5404,-264.2763 1769.7606,-220.9623 1922,-180 1977.4158,-165.0896 1989.2413,-152.4668 2046,-144 2240.1616,-115.0366 5233.978,-94.8465 5889.0062,-90.7624"/>
<polygon fill="#000000" stroke="#000000" points="5889.4344,-94.2599 5899.4124,-90.6977 5889.3908,-87.26 5889.4344,-94.2599"/>
</g>
<!-- r911&#45;&gt;r693 -->
<g id="edge61" class="edge">
<title>r911&#45;&gt;r693</title>
<path fill="none" stroke="#000000" d="M1422.1122,-287.8203C1435.4717,-254.7854 1457.2984,-184.5803 1422,-144 1403.1781,-122.3617 1240.0046,-105.7008 1131.9222,-96.9144"/>
<polygon fill="#000000" stroke="#000000" points="1131.8894,-93.4006 1121.6413,-96.0888 1131.329,-100.3781 1131.8894,-93.4006"/>
</g>
<!-- r2246 -->
<g id="node27" class="node">
<title>r2246</title>
<polygon fill="#d3d3d3" stroke="#000000" points="3280.5,-252 3023.5,-252 3023.5,-216 3280.5,-216 3280.5,-252"/>
<text text-anchor="middle" x="3152" y="-230.3" font-family="Times,serif" font-size="14.00" fill="#000000">Rule 2246: Submitting a CFJ to the Referee</text>
</g>
<!-- r2246&#45;&gt;r2555 -->
<g id="edge62" class="edge">
<title>r2246&#45;&gt;r2555</title>
<path fill="none" stroke="#000000" d="M3096.0155,-215.9243C3064.9143,-205.8826 3026.0761,-193.343 2993.681,-182.8835"/>
<polygon fill="#000000" stroke="#000000" points="2994.4415,-179.4513 2983.8498,-179.7094 2992.2907,-186.1127 2994.4415,-179.4513"/>
</g>
<!-- r2450 -->
<g id="node28" class="node">
<title>r2450</title>
<polygon fill="#d3d3d3" stroke="#000000" points="3721,-324 3599,-324 3599,-288 3721,-288 3721,-324"/>
<text text-anchor="middle" x="3660" y="-302.3" font-family="Times,serif" font-size="14.00" fill="#000000">Rule 2450: Pledges</text>
</g>
<!-- r2450&#45;&gt;r2555 -->
<g id="edge63" class="edge">
<title>r2450&#45;&gt;r2555</title>
<path fill="none" stroke="#000000" d="M3598.6868,-289.4718C3595.7607,-288.9232 3592.8543,-288.4273 3590,-288 3546.5498,-281.4947 2830.351,-283.7656 2800,-252 2788.9468,-240.4316 2791.1358,-229.3201 2800,-216 2808.0363,-203.9239 2836.6758,-191.3562 2864.9339,-181.3869"/>
<polygon fill="#000000" stroke="#000000" points="2866.1518,-184.6693 2874.4721,-178.1101 2863.8774,-178.0491 2866.1518,-184.6693"/>
</g>
<!-- r2450&#45;&gt;r2557 -->
<g id="edge64" class="edge">
<title>r2450&#45;&gt;r2557</title>
<path fill="none" stroke="#000000" d="M3654.7008,-287.8314C3652.4302,-280.0463 3649.7254,-270.7729 3647.206,-262.1347"/>
<polygon fill="#000000" stroke="#000000" points="3650.5306,-261.0332 3644.3705,-252.4133 3643.8106,-262.9933 3650.5306,-261.0332"/>
</g>
<!-- r2166 -->
<g id="node74" class="node">
<title>r2166</title>
<polygon fill="#d3d3d3" stroke="#000000" points="2159,-36 2043,-36 2043,0 2159,0 2159,-36"/>
<text text-anchor="middle" x="2101" y="-14.3" font-family="Times,serif" font-size="14.00" fill="#000000">Rule 2166: Assets</text>
</g>
<!-- r2577&#45;&gt;r2166 -->
<g id="edge65" class="edge">
<title>r2577&#45;&gt;r2166</title>
<path fill="none" stroke="#000000" d="M2472.873,-77.4997C2387.1899,-63.7904 2251.0394,-42.0063 2169.4173,-28.9468"/>
<polygon fill="#000000" stroke="#000000" points="2169.6793,-25.4442 2159.2518,-27.3203 2168.5733,-32.3563 2169.6793,-25.4442"/>
</g>
<!-- r2578&#45;&gt;r2166 -->
<g id="edge66" class="edge">
<title>r2578&#45;&gt;r2166</title>
<path fill="none" stroke="#000000" d="M2101,-71.8314C2101,-64.131 2101,-54.9743 2101,-46.4166"/>
<polygon fill="#000000" stroke="#000000" points="2104.5001,-46.4132 2101,-36.4133 2097.5001,-46.4133 2104.5001,-46.4132"/>
</g>
<!-- r2579 -->
<g id="node31" class="node">
<title>r2579</title>
<polygon fill="#d3d3d3" stroke="#000000" points="1803.5,-180 1622.5,-180 1622.5,-144 1803.5,-144 1803.5,-180"/>
<text text-anchor="middle" x="1713" y="-158.3" font-family="Times,serif" font-size="14.00" fill="#000000">Rule 2579: Fee&#45;based Actions</text>
</g>
<!-- r2579&#45;&gt;r2577 -->
<g id="edge67" class="edge">
<title>r2579&#45;&gt;r2577</title>
<path fill="none" stroke="#000000" d="M1803.6586,-152.6773C1832.5247,-149.7912 1864.595,-146.6704 1894,-144 2097.4964,-125.5199 2336.71,-106.5512 2462.8408,-96.7641"/>
<polygon fill="#000000" stroke="#000000" points="2463.1368,-100.2517 2472.8364,-95.9894 2462.5958,-93.2727 2463.1368,-100.2517"/>
</g>
<!-- r2579&#45;&gt;r2166 -->
<g id="edge68" class="edge">
<title>r2579&#45;&gt;r2166</title>
<path fill="none" stroke="#000000" d="M1761.7476,-143.9081C1833.2828,-117.359 1966.4711,-67.9283 2042.9582,-39.5413"/>
<polygon fill="#000000" stroke="#000000" points="2044.2945,-42.7787 2052.4518,-36.0179 2041.8588,-36.2161 2044.2945,-42.7787"/>
</g>
<!-- r2456 -->
<g id="node32" class="node">
<title>r2456</title>
<polygon fill="#d3d3d3" stroke="#000000" points="4317,-252 4159,-252 4159,-216 4317,-216 4317,-252"/>
<text text-anchor="middle" x="4238" y="-230.3" font-family="Times,serif" font-size="14.00" fill="#000000">Rule 2456: The Treasuror</text>
</g>
<!-- r2456&#45;&gt;r2166 -->
<g id="edge69" class="edge">
<title>r2456&#45;&gt;r2166</title>
<path fill="none" stroke="#000000" d="M4161.59,-215.9545C4071.5689,-195.3782 3917.2477,-162.2379 3783,-144 3160.0116,-59.3652 2398.9185,-28.0673 2169.5624,-20.1717"/>
<polygon fill="#000000" stroke="#000000" points="2169.48,-16.6669 2159.3665,-19.8241 2169.2414,-23.6629 2169.48,-16.6669"/>
</g>
<!-- r2483 -->
<g id="node33" class="node">
<title>r2483</title>
<polygon fill="#d3d3d3" stroke="#000000" points="1938.5,-324 1797.5,-324 1797.5,-288 1938.5,-288 1938.5,-324"/>
<text text-anchor="middle" x="1868" y="-302.3" font-family="Times,serif" font-size="14.00" fill="#000000">Rule 2483: Economics</text>
</g>
<!-- r2483&#45;&gt;r2578 -->
<g id="edge70" class="edge">
<title>r2483&#45;&gt;r2578</title>
<path fill="none" stroke="#000000" d="M1797.2692,-290.2401C1701.6744,-265.8502 1550.021,-214.3323 1613,-144 1639.7048,-114.1772 1889.9955,-99.0451 2021.3519,-93.1023"/>
<polygon fill="#000000" stroke="#000000" points="2021.5355,-96.5977 2031.37,-92.6564 2021.2242,-89.6046 2021.5355,-96.5977"/>
</g>
<!-- r2483&#45;&gt;r2579 -->
<g id="edge71" class="edge">
<title>r2483&#45;&gt;r2579</title>
<path fill="none" stroke="#000000" d="M1831.5994,-287.8021C1814.8532,-278.4326 1795.3461,-266.0299 1780,-252 1759.6458,-233.3915 1741.3128,-207.8387 1728.9908,-188.7141"/>
<polygon fill="#000000" stroke="#000000" points="1731.8963,-186.7598 1723.6046,-180.1645 1725.9737,-190.4911 1731.8963,-186.7598"/>
</g>
<!-- r2483&#45;&gt;r2456 -->
<g id="edge72" class="edge">
<title>r2483&#45;&gt;r2456</title>
<path fill="none" stroke="#000000" d="M1938.6577,-293.5568C1953.8965,-291.3144 1969.9493,-289.2839 1985,-288 2893.3967,-210.5083 3125.5945,-300.4906 4036,-252 4072.9598,-250.0314 4113.6272,-246.6444 4148.7251,-243.3358"/>
<polygon fill="#000000" stroke="#000000" points="4149.3251,-246.7945 4158.9471,-242.3597 4148.6597,-239.8262 4149.3251,-246.7945"/>
</g>
<!-- r2483&#45;&gt;r2449 -->
<g id="edge73" class="edge">
<title>r2483&#45;&gt;r2449</title>
<path fill="none" stroke="#000000" d="M1938.6511,-293.4779C1953.8903,-291.2405 1969.945,-289.2321 1985,-288 2732.1003,-226.8551 4609.5772,-293.9627 5358,-252 5382.1233,-250.6475 5408.0301,-248.4409 5432.3783,-246.0285"/>
<polygon fill="#000000" stroke="#000000" points="5432.7473,-249.5091 5442.3447,-245.0214 5432.0434,-242.5446 5432.7473,-249.5091"/>
</g>
<!-- r2496 -->
<g id="node34" class="node">
<title>r2496</title>
<polygon fill="#d3d3d3" stroke="#000000" points="314,-396 186,-396 186,-360 314,-360 314,-396"/>
<text text-anchor="middle" x="250" y="-374.3" font-family="Times,serif" font-size="14.00" fill="#000000">Rule 2496: Rewards</text>
</g>
<!-- r2496&#45;&gt;r2577 -->
<g id="edge74" class="edge">
<title>r2496&#45;&gt;r2577</title>
<path fill="none" stroke="#000000" d="M314.1411,-377.1256C564.4192,-373.4745 1464.0106,-358.0263 1514,-324 1586.3711,-274.7393 1521.9673,-193.7543 1594,-144 1602.8856,-137.8626 2227.0785,-106.1493 2462.4783,-94.3922"/>
<polygon fill="#000000" stroke="#000000" points="2462.9026,-97.8754 2472.7157,-93.8812 2462.5536,-90.8841 2462.9026,-97.8754"/>
</g>
<!-- r2496&#45;&gt;r2483 -->
<g id="edge75" class="edge">
<title>r2496&#45;&gt;r2483</title>
<path fill="none" stroke="#000000" d="M314.0956,-376.6669C562.759,-371.3438 1463.9486,-350.6053 1749,-324 1761.394,-322.8432 1774.464,-321.25 1787.2241,-319.4862"/>
<polygon fill="#000000" stroke="#000000" points="1787.966,-322.9159 1797.3722,-318.0402 1786.9784,-315.9859 1787.966,-322.9159"/>
</g>
<!-- r2496&#45;&gt;r693 -->
<g id="edge76" class="edge">
<title>r2496&#45;&gt;r693</title>
<path fill="none" stroke="#000000" d="M185.7821,-371.8916C117.2288,-362.5809 22.7913,-340.0632 57,-288 145.5446,-153.2415 233.6003,-183.232 390,-144 491.4412,-118.554 786.0769,-101.5937 939.9244,-94.2096"/>
<polygon fill="#000000" stroke="#000000" points="940.4799,-97.6873 950.3022,-93.7158 940.1471,-90.6952 940.4799,-97.6873"/>
</g>
<!-- r2496&#45;&gt;r2166 -->
<g id="edge77" class="edge">
<title>r2496&#45;&gt;r2166</title>
<path fill="none" stroke="#000000" d="M185.8084,-366.9116C134.4169,-356.9772 67.4979,-341.3325 46,-324 11.0286,-295.8046 0,-278.9219 0,-234 0,-234 0,-234 0,-162 0,-57.6326 1671.9127,-24.8782 2032.8472,-19.0231"/>
<polygon fill="#000000" stroke="#000000" points="2032.9477,-22.522 2042.8901,-18.8617 2032.8351,-15.5229 2032.9477,-22.522"/>
</g>
<!-- r2559 -->
<g id="node35" class="node">
<title>r2559</title>
<polygon fill="#d3d3d3" stroke="#000000" points="2375.5,-396 2250.5,-396 2250.5,-360 2375.5,-360 2375.5,-396"/>
<text text-anchor="middle" x="2313" y="-374.3" font-family="Times,serif" font-size="14.00" fill="#000000">Rule 2559: Paydays</text>
</g>
<!-- r2559&#45;&gt;r2577 -->
<g id="edge78" class="edge">
<title>r2559&#45;&gt;r2577</title>
<path fill="none" stroke="#000000" d="M2375.7956,-377.6728C2643.2872,-376.0168 3676.5035,-366.8585 3730,-324 3755.8288,-303.3074 3744.7424,-284.8204 3749,-252 3751.0583,-236.133 3759.7057,-227.8907 3749,-216 3674.9507,-133.7541 2904.3176,-101.3747 2639.6586,-92.6273"/>
<polygon fill="#000000" stroke="#000000" points="2639.4342,-89.1182 2629.3251,-92.2893 2639.2053,-96.1145 2639.4342,-89.1182"/>
</g>
<!-- r2559&#45;&gt;r2483 -->
<g id="edge79" class="edge">
<title>r2559&#45;&gt;r2483</title>
<path fill="none" stroke="#000000" d="M2250.3791,-369.7636C2178.4143,-360.0303 2056.8604,-342.7692 1953,-324 1951.7058,-323.7661 1950.4012,-323.5273 1949.0883,-323.2841"/>
<polygon fill="#000000" stroke="#000000" points="1949.3769,-319.7763 1938.8988,-321.345 1948.0681,-326.6529 1949.3769,-319.7763"/>
</g>
<!-- r2499 -->
<g id="node36" class="node">
<title>r2499</title>
<polygon fill="#d3d3d3" stroke="#000000" points="1912,-396 1724,-396 1724,-360 1912,-360 1912,-396"/>
<text text-anchor="middle" x="1818" y="-374.3" font-family="Times,serif" font-size="14.00" fill="#000000">Rule 2499: Welcome Packages</text>
</g>
<!-- r2499&#45;&gt;r2577 -->
<g id="edge80" class="edge">
<title>r2499&#45;&gt;r2577</title>
<path fill="none" stroke="#000000" d="M1805.9671,-359.7079C1793.052,-340.7441 1771.3603,-310.7451 1749,-288 1687.2857,-225.2237 1552.5677,-208.0114 1613,-144 1620.2538,-136.3166 2230.7864,-105.6697 2462.8442,-94.286"/>
<polygon fill="#000000" stroke="#000000" points="2463.1228,-97.7767 2472.9394,-93.7912 2462.7801,-90.7851 2463.1228,-97.7767"/>
</g>
<!-- r2499&#45;&gt;r2483 -->
<g id="edge81" class="edge">
<title>r2499&#45;&gt;r2483</title>
<path fill="none" stroke="#000000" d="M1830.6171,-359.8314C1836.3172,-351.6232 1843.1663,-341.7606 1849.4359,-332.7323"/>
<polygon fill="#000000" stroke="#000000" points="1852.3838,-334.6234 1855.213,-324.4133 1846.6342,-330.6306 1852.3838,-334.6234"/>
</g>
<!-- r2585 -->
<g id="node37" class="node">
<title>r2585</title>
<polygon fill="#d3d3d3" stroke="#000000" points="5513,-396 5355,-396 5355,-360 5513,-360 5513,-396"/>
<text text-anchor="middle" x="5434" y="-374.3" font-family="Times,serif" font-size="14.00" fill="#000000">Rule 2585: Birthday Gifts</text>
</g>
<!-- r2585&#45;&gt;r2577 -->
<g id="edge82" class="edge">
<title>r2585&#45;&gt;r2577</title>
<path fill="none" stroke="#000000" d="M5431.6235,-359.9586C5425.9723,-325.1702 5408.2235,-249.3149 5358,-216 5315.5137,-187.8175 4491.89,-183.0889 4441,-180 4246.0357,-168.1662 4197.9764,-155.6325 4003,-144 3486.8536,-113.2063 2866.38,-97.1056 2639.5425,-91.9106"/>
<polygon fill="#000000" stroke="#000000" points="2639.4413,-88.4075 2629.3642,-91.6788 2639.2818,-95.4057 2639.4413,-88.4075"/>
</g>
<!-- r2585&#45;&gt;r2483 -->
<g id="edge83" class="edge">
<title>r2585&#45;&gt;r2483</title>
<path fill="none" stroke="#000000" d="M5354.9261,-373.0486C5283.811,-368.8092 5176.4633,-362.9384 5083,-360 4394.8491,-338.3653 2671.1699,-380.4854 1985,-324 1973.2387,-323.0318 1960.8671,-321.5923 1948.7507,-319.9417"/>
<polygon fill="#000000" stroke="#000000" points="1949.044,-316.4484 1938.652,-318.5112 1948.0622,-323.3792 1949.044,-316.4484"/>
</g>
<!-- r2585&#45;&gt;r1728 -->
<g id="edge84" class="edge">
<title>r2585&#45;&gt;r1728</title>
<path fill="none" stroke="#000000" d="M5513.0506,-366.4931C5532.3038,-364.0213 5552.8634,-361.6574 5572,-360 5664.5176,-351.987 6328.525,-373.6526 6407,-324 6476.0944,-280.2827 6499.0936,-205.3116 6445,-144 6424.9829,-121.3119 6260.356,-105.8159 6140.7481,-97.4312"/>
<polygon fill="#000000" stroke="#000000" points="6140.9894,-93.9396 6130.7716,-96.7409 6140.5062,-100.9229 6140.9894,-93.9396"/>
</g>
<!-- r2545 -->
<g id="node38" class="node">
<title>r2545</title>
<polygon fill="#d3d3d3" stroke="#000000" points="2451.5,-180 2322.5,-180 2322.5,-144 2451.5,-144 2451.5,-180"/>
<text text-anchor="middle" x="2387" y="-158.3" font-family="Times,serif" font-size="14.00" fill="#000000">Rule 2545: Auctions</text>
</g>
<!-- r2545&#45;&gt;r2577 -->
<g id="edge85" class="edge">
<title>r2545&#45;&gt;r2577</title>
<path fill="none" stroke="#000000" d="M2428.3841,-143.8314C2450.3182,-134.2018 2477.4392,-122.295 2500.5931,-112.1299"/>
<polygon fill="#000000" stroke="#000000" points="2502.164,-115.2627 2509.9135,-108.038 2499.35,-108.8532 2502.164,-115.2627"/>
</g>
<!-- r2545&#45;&gt;r2578 -->
<g id="edge86" class="edge">
<title>r2545&#45;&gt;r2578</title>
<path fill="none" stroke="#000000" d="M2322.4594,-145.752C2280.415,-135.1674 2225.2644,-121.2834 2180.5183,-110.0186"/>
<polygon fill="#000000" stroke="#000000" points="2181.1065,-106.5575 2170.5546,-107.5102 2179.3975,-113.3457 2181.1065,-106.5575"/>
</g>
<!-- r2549 -->
<g id="node39" class="node">
<title>r2549</title>
<polygon fill="#d3d3d3" stroke="#000000" points="2551.5,-324 2374.5,-324 2374.5,-288 2551.5,-288 2551.5,-324"/>
<text text-anchor="middle" x="2463" y="-302.3" font-family="Times,serif" font-size="14.00" fill="#000000">Rule 2549: Auction Initiation</text>
</g>
<!-- r2549&#45;&gt;r2578 -->
<g id="edge87" class="edge">
<title>r2549&#45;&gt;r2578</title>
<path fill="none" stroke="#000000" d="M2506.9347,-287.753C2521.771,-279.2165 2536.6718,-267.4562 2545,-252 2573.9746,-198.2261 2515.6229,-169.2438 2460,-144 2411.5753,-122.023 2271.0049,-105.556 2180.808,-96.884"/>
<polygon fill="#000000" stroke="#000000" points="2180.8982,-93.3769 2170.6121,-95.9162 2180.2366,-100.3456 2180.8982,-93.3769"/>
</g>
<!-- r2549&#45;&gt;r2545 -->
<g id="edge88" class="edge">
<title>r2549&#45;&gt;r2545</title>
<path fill="none" stroke="#000000" d="M2495.2779,-287.8412C2507.9425,-278.8521 2521.0816,-266.742 2528,-252 2534.7975,-237.5157 2537.0676,-229.1825 2528,-216 2519.5215,-203.6739 2490.5712,-191.6039 2461.0909,-182.0122"/>
<polygon fill="#000000" stroke="#000000" points="2462.1159,-178.6656 2451.526,-178.988 2460.0055,-185.3399 2462.1159,-178.6656"/>
</g>
<!-- r2550 -->
<g id="node40" class="node">
<title>r2550</title>
<polygon fill="#d3d3d3" stroke="#000000" points="2136,-252 2012,-252 2012,-216 2136,-216 2136,-252"/>
<text text-anchor="middle" x="2074" y="-230.3" font-family="Times,serif" font-size="14.00" fill="#000000">Rule 2550: Bidding</text>
</g>
<!-- r2549&#45;&gt;r2550 -->
<g id="edge89" class="edge">
<title>r2549&#45;&gt;r2550</title>
<path fill="none" stroke="#000000" d="M2374.3401,-289.6357C2371.1887,-289.0795 2368.0678,-288.5327 2365,-288 2270.5283,-271.5961 2243.7098,-272.1379 2146.2446,-252.1729"/>
<polygon fill="#000000" stroke="#000000" points="2146.7695,-248.7075 2136.2677,-250.1089 2145.3512,-255.5623 2146.7695,-248.7075"/>
</g>
<!-- r2550&#45;&gt;r2578 -->
<g id="edge90" class="edge">
<title>r2550&#45;&gt;r2578</title>
<path fill="none" stroke="#000000" d="M2077.4196,-215.7623C2082.0451,-191.0928 2090.3388,-146.8598 2095.755,-117.9731"/>
<polygon fill="#000000" stroke="#000000" points="2099.2053,-118.5634 2097.6082,-108.0896 2092.3252,-117.2733 2099.2053,-118.5634"/>
</g>
<!-- r2550&#45;&gt;r2545 -->
<g id="edge91" class="edge">
<title>r2550&#45;&gt;r2545</title>
<path fill="none" stroke="#000000" d="M2136.3131,-218.0945C2139.2479,-217.3793 2142.1549,-216.6779 2145,-216 2201.0022,-202.6559 2264.5372,-188.5166 2312.4507,-178.0549"/>
<polygon fill="#000000" stroke="#000000" points="2313.4043,-181.4293 2322.4295,-175.8799 2311.9135,-174.5899 2313.4043,-181.4293"/>
</g>
<!-- r2551 -->
<g id="node41" class="node">
<title>r2551</title>
<polygon fill="#d3d3d3" stroke="#000000" points="2143.5,-324 1994.5,-324 1994.5,-288 2143.5,-288 2143.5,-324"/>
<text text-anchor="middle" x="2069" y="-302.3" font-family="Times,serif" font-size="14.00" fill="#000000">Rule 2551: Auction End</text>
</g>
<!-- r2551&#45;&gt;r2577 -->
<g id="edge92" class="edge">
<title>r2551&#45;&gt;r2577</title>
<path fill="none" stroke="#000000" d="M2028.8973,-287.9226C2014.5601,-279.2521 1999.9861,-267.3548 1992,-252 1966.4615,-202.8971 2005.0114,-169.7571 2054,-144 2122.9299,-107.7582 2339.4443,-95.7917 2462.759,-91.8759"/>
<polygon fill="#000000" stroke="#000000" points="2463.0446,-95.3689 2472.9327,-91.5643 2462.8303,-88.3721 2463.0446,-95.3689"/>
</g>
<!-- r2551&#45;&gt;r2578 -->
<g id="edge93" class="edge">
<title>r2551&#45;&gt;r2578</title>
<path fill="none" stroke="#000000" d="M1994.4942,-291.7586C1936.642,-279.9448 1864.8,-263.3094 1856,-252 1846.1743,-239.3724 1847.6658,-229.658 1856,-216 1891.7986,-157.3339 1964.5946,-124.8296 2021.5785,-107.6008"/>
<polygon fill="#000000" stroke="#000000" points="2022.6814,-110.925 2031.2993,-104.7619 2020.719,-104.2057 2022.6814,-110.925"/>
</g>
<!-- r2551&#45;&gt;r2579 -->
<g id="edge94" class="edge">
<title>r2551&#45;&gt;r2579</title>
<path fill="none" stroke="#000000" d="M1994.4987,-294.4369C1932.0104,-283.9266 1848.2664,-267.7057 1818,-252 1797.0621,-241.135 1796.8031,-231.4756 1779,-216 1767.6711,-206.1522 1754.9632,-195.6345 1743.7456,-186.5222"/>
<polygon fill="#000000" stroke="#000000" points="1745.859,-183.73 1735.8819,-180.1651 1741.4583,-189.1738 1745.859,-183.73"/>
</g>
<!-- r2551&#45;&gt;r2545 -->
<g id="edge95" class="edge">
<title>r2551&#45;&gt;r2545</title>
<path fill="none" stroke="#000000" d="M2040.0242,-287.7437C2013.9155,-269.0715 1982.5348,-239.5444 2003,-216 2022.9754,-193.019 2206.4945,-175.5505 2312.43,-167.2804"/>
<polygon fill="#000000" stroke="#000000" points="2312.7304,-170.7677 2322.4315,-166.5089 2312.1919,-163.7884 2312.7304,-170.7677"/>
</g>
<!-- r2551&#45;&gt;r2550 -->
<g id="edge96" class="edge">
<title>r2551&#45;&gt;r2550</title>
<path fill="none" stroke="#000000" d="M2070.2617,-287.8314C2070.7965,-280.131 2071.4323,-270.9743 2072.0266,-262.4166"/>
<polygon fill="#000000" stroke="#000000" points="2075.52,-262.6317 2072.7213,-252.4133 2068.5368,-262.1467 2075.52,-262.6317"/>
</g>
<!-- r2551&#45;&gt;r2449 -->
<g id="edge97" class="edge">
<title>r2551&#45;&gt;r2449</title>
<path fill="none" stroke="#000000" d="M2143.5385,-289.0906C2146.3884,-288.6809 2149.2162,-288.3142 2152,-288 2505.9969,-248.0443 5002.3195,-272.0415 5358,-252 5382.1229,-250.6407 5408.0296,-248.4316 5432.3777,-246.0188"/>
<polygon fill="#000000" stroke="#000000" points="5432.7467,-249.4994 5442.3441,-245.0116 5432.0428,-242.5349 5432.7467,-249.4994"/>
</g>
<!-- r2552 -->
<g id="node42" class="node">
<title>r2552</title>
<polygon fill="#d3d3d3" stroke="#000000" points="2356.5,-324 2161.5,-324 2161.5,-288 2356.5,-288 2356.5,-324"/>
<text text-anchor="middle" x="2259" y="-302.3" font-family="Times,serif" font-size="14.00" fill="#000000">Rule 2552: Auction Termination</text>
</g>
<!-- r2552&#45;&gt;r2577 -->
<g id="edge98" class="edge">
<title>r2552&#45;&gt;r2577</title>
<path fill="none" stroke="#000000" d="M2161.4327,-288.3586C2091.3193,-275.2109 2008.2397,-258.4602 2003,-252 1992.9212,-239.5735 1993.048,-228.5283 2003,-216 2059.3871,-145.0157 2322.3942,-110.7096 2462.538,-97.2242"/>
<polygon fill="#000000" stroke="#000000" points="2463.1976,-100.6775 2472.8233,-96.2506 2462.5379,-93.7086 2463.1976,-100.6775"/>
</g>
<!-- r2552&#45;&gt;r2545 -->
<g id="edge99" class="edge">
<title>r2552&#45;&gt;r2545</title>
<path fill="none" stroke="#000000" d="M2278.6255,-287.772C2289.3688,-277.5392 2302.7456,-264.3746 2314,-252 2332.8992,-231.2197 2352.8969,-206.3362 2367.1737,-188.006"/>
<polygon fill="#000000" stroke="#000000" points="2369.9528,-190.1336 2373.3061,-180.0834 2364.4173,-185.8488 2369.9528,-190.1336"/>
</g>
<!-- r2552&#45;&gt;r2550 -->
<g id="edge100" class="edge">
<title>r2552&#45;&gt;r2550</title>
<path fill="none" stroke="#000000" d="M2212.3167,-287.8314C2187.2441,-278.0734 2156.1633,-265.977 2129.8191,-255.7242"/>
<polygon fill="#000000" stroke="#000000" points="2130.9362,-252.4033 2120.3476,-252.038 2128.3973,-258.9266 2130.9362,-252.4033"/>
</g>
<!-- r2584 -->
<g id="node43" class="node">
<title>r2584</title>
<polygon fill="#d3d3d3" stroke="#000000" points="2519.5,-252 2362.5,-252 2362.5,-216 2519.5,-216 2519.5,-252"/>
<text text-anchor="middle" x="2441" y="-230.3" font-family="Times,serif" font-size="14.00" fill="#000000">Rule 2584: Free Auctions</text>
</g>
<!-- r2584&#45;&gt;r2545 -->
<g id="edge101" class="edge">
<title>r2584&#45;&gt;r2545</title>
<path fill="none" stroke="#000000" d="M2427.3735,-215.8314C2421.154,-207.5386 2413.6678,-197.557 2406.84,-188.4533"/>
<polygon fill="#000000" stroke="#000000" points="2409.61,-186.3133 2400.81,-180.4133 2404.01,-190.5133 2409.61,-186.3133"/>
</g>
<!-- r1885 -->
<g id="node44" class="node">
<title>r1885</title>
<polygon fill="#d3d3d3" stroke="#000000" points="2745,-324 2569,-324 2569,-288 2745,-288 2745,-324"/>
<text text-anchor="middle" x="2657" y="-302.3" font-family="Times,serif" font-size="14.00" fill="#000000">Rule 1885: Zombie Auctions</text>
</g>
<!-- r1885&#45;&gt;r2577 -->
<g id="edge102" class="edge">
<title>r1885&#45;&gt;r2577</title>
<path fill="none" stroke="#000000" d="M2653.147,-287.9727C2645.9892,-256.945 2628.7035,-192.1455 2600,-144 2594.0441,-134.0099 2586.052,-124.2353 2578.2523,-115.8081"/>
<polygon fill="#000000" stroke="#000000" points="2580.6611,-113.2635 2571.2074,-108.4802 2575.6148,-118.1149 2580.6611,-113.2635"/>
</g>
<!-- r1885&#45;&gt;r2545 -->
<g id="edge103" class="edge">
<title>r1885&#45;&gt;r2545</title>
<path fill="none" stroke="#000000" d="M2638.6559,-287.8532C2617.5998,-267.8805 2581.2767,-235.9653 2545,-216 2519.1018,-201.7466 2488.7652,-190.2801 2461.6356,-181.6419"/>
<polygon fill="#000000" stroke="#000000" points="2462.3879,-178.2107 2451.7998,-178.5875 2460.3119,-184.8958 2462.3879,-178.2107"/>
</g>
<!-- r1885&#45;&gt;r2550 -->
<g id="edge104" class="edge">
<title>r1885&#45;&gt;r2550</title>
<path fill="none" stroke="#000000" d="M2568.7707,-289.2523C2565.815,-288.8111 2562.8852,-288.3919 2560,-288 2379.7723,-263.5194 2329.313,-282.1681 2146.1761,-252.0435"/>
<polygon fill="#000000" stroke="#000000" points="2146.657,-248.5754 2136.2168,-250.3791 2145.5031,-255.4796 2146.657,-248.5754"/>
</g>
<!-- r1885&#45;&gt;r2449 -->
<g id="edge105" class="edge">
<title>r1885&#45;&gt;r2449</title>
<path fill="none" stroke="#000000" d="M2745.1999,-303.3494C2872.5448,-299.5822 3115.318,-292.6243 3322,-288 4226.8039,-267.7557 4454.5719,-305.8295 5358,-252 5382.1184,-250.5629 5408.0233,-248.3235 5432.3712,-245.9062"/>
<polygon fill="#000000" stroke="#000000" points="5432.7404,-249.3868 5442.3376,-244.8986 5432.0362,-242.4223 5432.7404,-249.3868"/>
</g>
<!-- r649 -->
<g id="node52" class="node">
<title>r649</title>
<polygon fill="#d3d3d3" stroke="#000000" points="5606,-180 5464,-180 5464,-144 5606,-144 5606,-180"/>
<text text-anchor="middle" x="5535" y="-158.3" font-family="Times,serif" font-size="14.00" fill="#000000">Rule 649: Patent Titles</text>
</g>
<!-- r2449&#45;&gt;r649 -->
<g id="edge106" class="edge">
<title>r2449&#45;&gt;r649</title>
<path fill="none" stroke="#000000" d="M5535,-215.8314C5535,-208.131 5535,-198.9743 5535,-190.4166"/>
<polygon fill="#000000" stroke="#000000" points="5538.5001,-190.4132 5535,-180.4133 5531.5001,-190.4133 5538.5001,-190.4132"/>
</g>
<!-- r2465 -->
<g id="node46" class="node">
<title>r2465</title>
<polygon fill="#d3d3d3" stroke="#000000" points="6058,-324 5876,-324 5876,-288 6058,-288 6058,-324"/>
<text text-anchor="middle" x="5967" y="-302.3" font-family="Times,serif" font-size="14.00" fill="#000000">Rule 2465: Victory by Apathy</text>
</g>
<!-- r2465&#45;&gt;r2449 -->
<g id="edge107" class="edge">
<title>r2465&#45;&gt;r2449</title>
<path fill="none" stroke="#000000" d="M5875.7439,-290.0008C5871.7762,-289.3215 5867.848,-288.652 5864,-288 5788.2962,-275.1727 5702.7094,-261.1396 5637.8089,-250.5946"/>
<polygon fill="#000000" stroke="#000000" points="5638.0068,-247.081 5627.5751,-248.9329 5636.8848,-253.9905 5638.0068,-247.081"/>
</g>
<!-- r2465&#45;&gt;r1728 -->
<g id="edge108" class="edge">
<title>r2465&#45;&gt;r1728</title>
<path fill="none" stroke="#000000" d="M6005.1699,-287.9068C6043.0205,-267.6007 6098.7625,-230.7324 6123,-180 6129.8973,-165.563 6131.4117,-157.6104 6123,-144 6114.7278,-130.6153 6102.0222,-120.4372 6088.194,-112.7361"/>
<polygon fill="#000000" stroke="#000000" points="6089.4771,-109.4611 6078.9801,-108.0241 6086.2899,-115.6935 6089.4771,-109.4611"/>
</g>
<!-- r2510 -->
<g id="node47" class="node">
<title>r2510</title>
<polygon fill="#d3d3d3" stroke="#000000" points="4724.5,-252 4563.5,-252 4563.5,-216 4724.5,-216 4724.5,-252"/>
<text text-anchor="middle" x="4644" y="-230.3" font-family="Times,serif" font-size="14.00" fill="#000000">Rule 2510: Such is Karma</text>
</g>
<!-- r2510&#45;&gt;r2577 -->
<g id="edge109" class="edge">
<title>r2510&#45;&gt;r2577</title>
<path fill="none" stroke="#000000" d="M4563.1754,-222.5885C4545.9682,-220.2916 4527.8942,-217.978 4511,-216 4188.0717,-178.1911 4107.3105,-167.1273 3783,-144 3355.0616,-113.4827 2842.1888,-97.6539 2639.5656,-92.2172"/>
<polygon fill="#000000" stroke="#000000" points="2639.3698,-88.7108 2629.28,-91.943 2639.1832,-95.7083 2639.3698,-88.7108"/>
</g>
<!-- r2510&#45;&gt;r649 -->
<g id="edge110" class="edge">
<title>r2510&#45;&gt;r649</title>
<path fill="none" stroke="#000000" d="M4724.809,-221.7739C4740.4423,-219.6528 4756.713,-217.6139 4772,-216 5019.6921,-189.8507 5313.9962,-173.0323 5453.6601,-165.9084"/>
<polygon fill="#000000" stroke="#000000" points="5454.0418,-169.3936 5463.8517,-165.3917 5453.6873,-162.4026 5454.0418,-169.3936"/>
</g>
<!-- r2553 -->
<g id="node48" class="node">
<title>r2553</title>
<polygon fill="#d3d3d3" stroke="#000000" points="5855,-324 5685,-324 5685,-288 5855,-288 5855,-324"/>
<text text-anchor="middle" x="5770" y="-302.3" font-family="Times,serif" font-size="14.00" fill="#000000">Rule 2553: Win by Paradox</text>
</g>
<!-- r2553&#45;&gt;r2449 -->
<g id="edge111" class="edge">
<title>r2553&#45;&gt;r2449</title>
<path fill="none" stroke="#000000" d="M5711.0029,-287.9243C5678.458,-277.9531 5637.8739,-265.5188 5603.8811,-255.104"/>
<polygon fill="#000000" stroke="#000000" points="5604.608,-251.6662 5594.0214,-252.0831 5602.5574,-258.3591 5604.608,-251.6662"/>
</g>
<!-- r591 -->
<g id="node75" class="node">
<title>r591</title>
<polygon fill="#d3d3d3" stroke="#000000" points="6021,-252 5821,-252 5821,-216 6021,-216 6021,-252"/>
<text text-anchor="middle" x="5921" y="-230.3" font-family="Times,serif" font-size="14.00" fill="#000000">Rule 591: Delivering Judgements</text>
</g>
<!-- r2553&#45;&gt;r591 -->
<g id="edge112" class="edge">
<title>r2553&#45;&gt;r591</title>
<path fill="none" stroke="#000000" d="M5808.1037,-287.8314C5828.1195,-278.2874 5852.8267,-266.5065 5874.0194,-256.4013"/>
<polygon fill="#000000" stroke="#000000" points="5875.6503,-259.5013 5883.1703,-252.038 5872.6375,-253.1828 5875.6503,-259.5013"/>
</g>
<!-- r2438 -->
<g id="node49" class="node">
<title>r2438</title>
<polygon fill="#d3d3d3" stroke="#000000" points="5705.5,-396 5580.5,-396 5580.5,-360 5705.5,-360 5705.5,-396"/>
<text text-anchor="middle" x="5643" y="-374.3" font-family="Times,serif" font-size="14.00" fill="#000000">Rule 2438: Ribbons</text>
</g>
<!-- r2438&#45;&gt;r2577 -->
<g id="edge113" class="edge">
<title>r2438&#45;&gt;r2577</title>
<path fill="none" stroke="#000000" d="M5705.6446,-375.2238C5863.5692,-367.9172 6269.4327,-347.1175 6326,-324 6382.799,-300.7878 6453.7609,-260.9551 6412,-216 6337.9923,-136.3316 6024.7658,-220.8712 5924,-180 5900.903,-170.6317 5904.3564,-152.7013 5881,-144 5802.8485,-114.8849 3159.3709,-94.3788 2639.3053,-90.6212"/>
<polygon fill="#000000" stroke="#000000" points="2639.2594,-87.1209 2629.2344,-90.5486 2639.2088,-94.1207 2639.2594,-87.1209"/>
</g>
<!-- r2438&#45;&gt;r2449 -->
<g id="edge114" class="edge">
<title>r2438&#45;&gt;r2449</title>
<path fill="none" stroke="#000000" d="M5629.3217,-359.7623C5610.4139,-334.5518 5576.1827,-288.9103 5554.5714,-260.0952"/>
<polygon fill="#000000" stroke="#000000" points="5557.3673,-257.9896 5548.5672,-252.0896 5551.7672,-262.1897 5557.3673,-257.9896"/>
</g>
<!-- r2438&#45;&gt;r649 -->
<g id="edge115" class="edge">
<title>r2438&#45;&gt;r649</title>
<path fill="none" stroke="#000000" d="M5647.7926,-359.7772C5655.071,-327.883 5665.2759,-261.0548 5637,-216 5628.6996,-202.7742 5616.0007,-192.5966 5602.3503,-184.8369"/>
<polygon fill="#000000" stroke="#000000" points="5603.7609,-181.6246 5593.2793,-180.0792 5600.5094,-187.8236 5603.7609,-181.6246"/>
</g>
<!-- r2438&#45;&gt;r103 -->
<g id="edge116" class="edge">
<title>r2438&#45;&gt;r103</title>
<path fill="none" stroke="#000000" d="M5580.2993,-367.8988C5561.5776,-365.092 5540.986,-362.2109 5522,-360 5321.6241,-336.6665 5084.8298,-319.3438 4963.162,-311.1894"/>
<polygon fill="#000000" stroke="#000000" points="4963.388,-307.6968 4953.1772,-310.5235 4962.9221,-314.6813 4963.388,-307.6968"/>
</g>
<!-- r2438&#45;&gt;r693 -->
<g id="edge117" class="edge">
<title>r2438&#45;&gt;r693</title>
<path fill="none" stroke="#000000" d="M5705.694,-372.1969C5820.7939,-361.2427 6055.1832,-337.4172 6067,-324 6095.5879,-291.5403 6037.6371,-221.6146 6030,-216 6020.5733,-209.0698 5626.6517,-145.0621 5615,-144 5217.4061,-107.7582 2421.2024,-113.6436 2022,-108 1695.3723,-103.3824 1307.9225,-95.6493 1131.743,-92.0096"/>
<polygon fill="#000000" stroke="#000000" points="1131.7938,-88.51 1121.7235,-91.8023 1131.6489,-95.5085 1131.7938,-88.51"/>
</g>
<!-- r2480 -->
<g id="node50" class="node">
<title>r2480</title>
<polygon fill="#d3d3d3" stroke="#000000" points="5821,-468 5693,-468 5693,-432 5821,-432 5821,-468"/>
<text text-anchor="middle" x="5757" y="-446.3" font-family="Times,serif" font-size="14.00" fill="#000000">Rule 2480: Festivals</text>
</g>
<!-- r2480&#45;&gt;r2438 -->
<g id="edge118" class="edge">
<title>r2480&#45;&gt;r2438</title>
<path fill="none" stroke="#000000" d="M5728.233,-431.8314C5713.7867,-422.7074 5696.1035,-411.539 5680.596,-401.7449"/>
<polygon fill="#000000" stroke="#000000" points="5682.0817,-398.5436 5671.7578,-396.1628 5678.3437,-404.462 5682.0817,-398.5436"/>
</g>
<!-- r2480&#45;&gt;r1728 -->
<g id="edge119" class="edge">
<title>r2480&#45;&gt;r1728</title>
<path fill="none" stroke="#000000" d="M5821.2474,-449.1185C6135.0195,-444.6809 7492.656,-423.8936 7526,-396 7557.3566,-369.7689 7545,-346.8816 7545,-306 7545,-306 7545,-306 7545,-234 7545,-209.5885 7668.523,-216.8666 7328,-144 7214.1558,-119.6391 6447.115,-99.7955 6140.8941,-92.753"/>
<polygon fill="#000000" stroke="#000000" points="6140.7175,-89.2481 6130.6399,-92.518 6140.5571,-96.2463 6140.7175,-89.2481"/>
</g>
<!-- r2481 -->
<g id="node51" class="node">
<title>r2481</title>
<polygon fill="#d3d3d3" stroke="#000000" points="2868.5,-540 2677.5,-540 2677.5,-504 2868.5,-504 2868.5,-540"/>
<text text-anchor="middle" x="2773" y="-518.3" font-family="Times,serif" font-size="14.00" fill="#000000">Rule 2481: Festival Restrictions</text>
</g>
<!-- r2481&#45;&gt;r879 -->
<g id="edge120" class="edge">
<title>r2481&#45;&gt;r879</title>
<path fill="none" stroke="#000000" d="M2677.2534,-520.877C2251.7391,-515.2696 553,-486.1133 553,-378 553,-378 553,-378 553,-306 553,-262.7597 575.4945,-217.0187 592.2212,-188.9832"/>
<polygon fill="#000000" stroke="#000000" points="595.3756,-190.5353 597.6318,-180.1834 589.4126,-186.8688 595.3756,-190.5353"/>
</g>
<!-- r2481&#45;&gt;r2422 -->
<g id="edge121" class="edge">
<title>r2481&#45;&gt;r2422</title>
<path fill="none" stroke="#000000" d="M2773,-503.6526C2773,-445.0336 2773,-261.9552 2773,-190.7429"/>
<polygon fill="#000000" stroke="#000000" points="2776.5001,-190.3104 2773,-180.3104 2769.5001,-190.3105 2776.5001,-190.3104"/>
</g>
<!-- r2481&#45;&gt;r2480 -->
<g id="edge122" class="edge">
<title>r2481&#45;&gt;r2480</title>
<path fill="none" stroke="#000000" d="M2868.7506,-521.4939C3334.7718,-518.8615 5356.1167,-505.4396 5682.6289,-467.9206"/>
<polygon fill="#000000" stroke="#000000" points="5683.1624,-471.3815 5692.6618,-466.6899 5682.3101,-464.4336 5683.1624,-471.3815"/>
</g>
<!-- r649&#45;&gt;r2577 -->
<g id="edge123" class="edge">
<title>r649&#45;&gt;r2577</title>
<path fill="none" stroke="#000000" d="M5463.8766,-160.1984C5334.532,-156.9278 5052.146,-149.814 4814,-144 3967.1473,-123.3252 2942.011,-99.1827 2639.2071,-92.0698"/>
<polygon fill="#000000" stroke="#000000" points="2639.2497,-88.57 2629.1702,-91.8341 2639.0852,-95.568 2639.2497,-88.57"/>
</g>
<!-- r649&#45;&gt;r1728 -->
<g id="edge124" class="edge">
<title>r649&#45;&gt;r1728</title>
<path fill="none" stroke="#000000" d="M5606.0839,-151.3374C5680.54,-140.169 5798.9901,-122.4015 5889.2847,-108.8573"/>
<polygon fill="#000000" stroke="#000000" points="5889.9468,-112.2972 5899.3169,-107.3525 5888.9083,-105.3747 5889.9468,-112.2972"/>
</g>
<!-- r2415 -->
<g id="node53" class="node">
<title>r2415</title>
<polygon fill="#d3d3d3" stroke="#000000" points="5803,-252 5683,-252 5683,-216 5803,-216 5803,-252"/>
<text text-anchor="middle" x="5743" y="-230.3" font-family="Times,serif" font-size="14.00" fill="#000000">Rule 2415: Badges</text>
</g>
<!-- r2415&#45;&gt;r649 -->
<g id="edge125" class="edge">
<title>r2415&#45;&gt;r649</title>
<path fill="none" stroke="#000000" d="M5690.7813,-215.9243C5662.2229,-206.0387 5626.6705,-193.7321 5596.7432,-183.3726"/>
<polygon fill="#000000" stroke="#000000" points="5597.835,-180.0469 5587.2402,-180.0831 5595.5451,-186.6618 5597.835,-180.0469"/>
</g>
<!-- r2415&#45;&gt;r1728 -->
<g id="edge126" class="edge">
<title>r2415&#45;&gt;r1728</title>
<path fill="none" stroke="#000000" d="M5803.1034,-217.8168C5806.1036,-217.1674 5809.0814,-216.5568 5812,-216 5876.6552,-203.6652 6062.3773,-229.29 6106,-180 6116.6039,-168.0185 6113.917,-157.904 6106,-144 6098.6881,-131.1588 6086.987,-121.0559 6074.3768,-113.2384"/>
<polygon fill="#000000" stroke="#000000" points="6075.9622,-110.1132 6065.5441,-108.1858 6072.4864,-116.1893 6075.9622,-110.1132"/>
</g>
<!-- r1367 -->
<g id="node54" class="node">
<title>r1367</title>
<polygon fill="#d3d3d3" stroke="#000000" points="3849.5,-468 3724.5,-468 3724.5,-432 3849.5,-432 3849.5,-468"/>
<text text-anchor="middle" x="3787" y="-446.3" font-family="Times,serif" font-size="14.00" fill="#000000">Rule 1367: Degrees</text>
</g>
<!-- r1367&#45;&gt;r2438 -->
<g id="edge127" class="edge">
<title>r1367&#45;&gt;r2438</title>
<path fill="none" stroke="#000000" d="M3849.8285,-449.0276C4120.3881,-444.6884 5187.5117,-425.9817 5522,-396 5537.6171,-394.6002 5554.29,-392.5107 5570.1109,-390.2458"/>
<polygon fill="#000000" stroke="#000000" points="5570.9807,-393.6556 5580.3648,-388.7375 5569.9619,-386.7301 5570.9807,-393.6556"/>
</g>
<!-- r1367&#45;&gt;r649 -->
<g id="edge128" class="edge">
<title>r1367&#45;&gt;r649</title>
<path fill="none" stroke="#000000" d="M3724.3921,-442.3902C3609.1944,-426.9633 3370.9177,-387.9369 3322,-324 3309.237,-307.3183 3311.7142,-231.3535 3328,-216 3358.0437,-187.6763 4772.7226,-181.0152 4814,-180 5046.0983,-174.2914 5320.2201,-167.4094 5453.7312,-164.0485"/>
<polygon fill="#000000" stroke="#000000" points="5453.9676,-167.5437 5463.8764,-163.793 5453.7914,-160.5459 5453.9676,-167.5437"/>
</g>
<!-- r1367&#45;&gt;r1728 -->
<g id="edge129" class="edge">
<title>r1367&#45;&gt;r1728</title>
<path fill="none" stroke="#000000" d="M3783.3275,-431.7837C3775.483,-386.9948 3762.6113,-271.1446 3826,-216 4009.3386,-56.5058 4125.8199,-164.0062 4368,-144 4662.9834,-119.6318 5557.1136,-99.3773 5889.1221,-92.5065"/>
<polygon fill="#000000" stroke="#000000" points="5889.3332,-96.003 5899.2588,-92.2973 5889.1887,-89.0045 5889.3332,-96.003"/>
</g>
<!-- r2231 -->
<g id="node55" class="node">
<title>r2231</title>
<polygon fill="#d3d3d3" stroke="#000000" points="5053,-252 4781,-252 4781,-216 5053,-216 5053,-252"/>
<text text-anchor="middle" x="4917" y="-230.3" font-family="Times,serif" font-size="14.00" fill="#000000">Rule 2231: Order of the Hero of Agora Nomic</text>
</g>
<!-- r2231&#45;&gt;r649 -->
<g id="edge130" class="edge">
<title>r2231&#45;&gt;r649</title>
<path fill="none" stroke="#000000" d="M5053.2216,-217.0502C5056.1742,-216.6956 5059.1033,-216.3451 5062,-216 5199.3871,-199.6305 5359.3498,-181.5792 5453.6173,-171.045"/>
<polygon fill="#000000" stroke="#000000" points="5454.1062,-174.5123 5463.656,-169.9239 5453.3292,-167.5555 5454.1062,-174.5123"/>
</g>
<!-- r2581 -->
<g id="node56" class="node">
<title>r2581</title>
<polygon fill="#d3d3d3" stroke="#000000" points="4910,-396 4716,-396 4716,-360 4910,-360 4910,-396"/>
<text text-anchor="middle" x="4813" y="-374.3" font-family="Times,serif" font-size="14.00" fill="#000000">Rule 2581: Official Patent Titles</text>
</g>
<!-- r2581&#45;&gt;r2555 -->
<g id="edge131" class="edge">
<title>r2581&#45;&gt;r2555</title>
<path fill="none" stroke="#000000" d="M4800.5542,-359.6678C4785.4359,-338.9018 4757.9537,-305.6611 4726,-288 4658.0258,-250.43 4630.7419,-269.1803 4555,-252 4488.9813,-237.0252 4474.0562,-225.2832 4407,-216 4266.0537,-196.4876 3261.0794,-170.2799 2994.0278,-163.6007"/>
<polygon fill="#000000" stroke="#000000" points="2993.8078,-160.0942 2983.7235,-163.3435 2993.633,-167.092 2993.8078,-160.0942"/>
</g>
<!-- r2581&#45;&gt;r2456 -->
<g id="edge132" class="edge">
<title>r2581&#45;&gt;r2456</title>
<path fill="none" stroke="#000000" d="M4715.7043,-367.3269C4638.859,-357.7555 4538.6727,-342.4052 4502,-324 4481.2073,-313.5646 4484.4558,-299.0812 4464,-288 4421.9611,-265.227 4370.4077,-251.966 4327.1598,-244.2907"/>
<polygon fill="#000000" stroke="#000000" points="4327.6587,-240.8253 4317.213,-242.5969 4326.4836,-247.726 4327.6587,-240.8253"/>
</g>
<!-- r2581&#45;&gt;r649 -->
<g id="edge133" class="edge">
<title>r2581&#45;&gt;r649</title>
<path fill="none" stroke="#000000" d="M4903.0149,-359.9621C5035.1853,-333.006 5275.0621,-282.1622 5358,-252 5384.541,-242.3478 5449.6126,-208.1843 5493.022,-184.8388"/>
<polygon fill="#000000" stroke="#000000" points="5494.7931,-187.8603 5501.9346,-180.0341 5491.4713,-181.6986 5494.7931,-187.8603"/>
</g>
<!-- r2581&#45;&gt;r103 -->
<g id="edge134" class="edge">
<title>r2581&#45;&gt;r103</title>
<path fill="none" stroke="#000000" d="M4830.4116,-359.8314C4838.521,-351.3694 4848.3156,-341.1489 4857.182,-331.8971"/>
<polygon fill="#000000" stroke="#000000" points="4859.9618,-334.0549 4864.354,-324.4133 4854.9079,-329.2115 4859.9618,-334.0549"/>
</g>
<!-- r2581&#45;&gt;r2423 -->
<g id="edge135" class="edge">
<title>r2581&#45;&gt;r2423</title>
<path fill="none" stroke="#000000" d="M4715.7119,-376.8041C4543.4239,-373.7056 4191.9106,-362.6997 4076,-324 4047.9348,-314.6297 4045.0946,-303.6754 4020,-288 4003.7268,-277.8349 3985.6446,-266.814 3970.0524,-257.3952"/>
<polygon fill="#000000" stroke="#000000" points="3971.5633,-254.2192 3961.1922,-252.0533 3967.949,-260.214 3971.5633,-254.2192"/>
</g>
<!-- r2581&#45;&gt;r1728 -->
<g id="edge136" class="edge">
<title>r2581&#45;&gt;r1728</title>
<path fill="none" stroke="#000000" d="M4910.2567,-360.9311C4913.2007,-360.5919 4916.1203,-360.2799 4919,-360 5074.651,-344.871 6179.712,-379.2806 6326,-324 6383.3976,-302.3101 6448.2354,-265.517 6412,-216 6377.7672,-169.2196 6230.6983,-131.6138 6125.5548,-110.0394"/>
<polygon fill="#000000" stroke="#000000" points="6126.0121,-106.561 6115.5157,-108.0019 6124.6197,-113.4211 6126.0121,-106.561"/>
</g>
<!-- r2581&#45;&gt;r2138 -->
<g id="edge137" class="edge">
<title>r2581&#45;&gt;r2138</title>
<path fill="none" stroke="#000000" d="M4863.0085,-359.8822C4891.9324,-349.4017 4929.0208,-335.9602 4962,-324 5026.5207,-300.601 5100.4761,-273.7596 5150.7165,-255.5223"/>
<polygon fill="#000000" stroke="#000000" points="5151.9204,-258.8088 5160.1259,-252.1066 5149.5318,-252.2289 5151.9204,-258.8088"/>
</g>
<!-- r2582 -->
<g id="node57" class="node">
<title>r2582</title>
<polygon fill="#d3d3d3" stroke="#000000" points="5675,-468 5509,-468 5509,-432 5675,-432 5675,-468"/>
<text text-anchor="middle" x="5592" y="-446.3" font-family="Times,serif" font-size="14.00" fill="#000000">Rule 2582: Annual Awards</text>
</g>
<!-- r2582&#45;&gt;r2449 -->
<g id="edge138" class="edge">
<title>r2582&#45;&gt;r2449</title>
<path fill="none" stroke="#000000" d="M5584.5488,-431.7064C5580.4987,-421.3421 5575.5975,-408.072 5572,-396 5558.2316,-349.7981 5546.6724,-294.8849 5540.305,-262.3205"/>
<polygon fill="#000000" stroke="#000000" points="5543.6795,-261.3347 5538.349,-252.1785 5536.8061,-262.6604 5543.6795,-261.3347"/>
</g>
<!-- r2582&#45;&gt;r2438 -->
<g id="edge139" class="edge">
<title>r2582&#45;&gt;r2438</title>
<path fill="none" stroke="#000000" d="M5604.8695,-431.8314C5610.6835,-423.6232 5617.6696,-413.7606 5624.0646,-404.7323"/>
<polygon fill="#000000" stroke="#000000" points="5627.0331,-406.5966 5629.9573,-396.4133 5621.321,-402.5505 5627.0331,-406.5966"/>
</g>
<!-- r2582&#45;&gt;r649 -->
<g id="edge140" class="edge">
<title>r2582&#45;&gt;r649</title>
<path fill="none" stroke="#000000" d="M5675.0037,-433.6774C5804.6306,-407.3595 6042.8907,-355.3384 6067,-324 6076.7561,-311.3186 6070.762,-303.5514 6067,-288 6058.5406,-253.0306 6059.6455,-236.3854 6030,-216 5996.6986,-193.1007 5747.916,-174.8419 5616.2318,-166.6631"/>
<polygon fill="#000000" stroke="#000000" points="5616.3803,-163.1657 5606.1841,-166.0445 5615.9501,-170.1525 5616.3803,-163.1657"/>
</g>
<!-- r2582&#45;&gt;r1728 -->
<g id="edge141" class="edge">
<title>r2582&#45;&gt;r1728</title>
<path fill="none" stroke="#000000" d="M5675.2112,-433.5297C5678.1754,-433.0035 5681.1121,-432.4918 5684,-432 5793.7966,-413.3015 5821.9235,-412.9739 5932,-396 6183.4323,-357.2289 6363.6423,-475.047 6486,-252 6499.6581,-227.1026 6473.1783,-146.8738 6470,-144 6445.8718,-122.1834 6266.8219,-106.2004 6140.6741,-97.503"/>
<polygon fill="#000000" stroke="#000000" points="6140.7608,-94.0009 6130.5459,-96.8125 6140.2846,-100.9847 6140.7608,-94.0009"/>
</g>
<!-- r2582&#45;&gt;r2138 -->
<g id="edge142" class="edge">
<title>r2582&#45;&gt;r2138</title>
<path fill="none" stroke="#000000" d="M5508.9674,-437.6569C5448.6991,-427.6104 5373.1672,-412.4424 5346,-396 5290.2487,-362.2577 5246.4389,-297.4494 5224.8053,-260.8598"/>
<polygon fill="#000000" stroke="#000000" points="5227.8306,-259.0998 5219.7892,-252.2014 5221.7736,-262.6088 5227.8306,-259.0998"/>
</g>
<!-- r103&#45;&gt;r2422 -->
<g id="edge143" class="edge">
<title>r103&#45;&gt;r2422</title>
<path fill="none" stroke="#000000" d="M4810.8359,-294.2168C4666.3027,-270.3219 4349.9763,-218.2255 4326,-216 3682.5656,-156.2749 3512.4222,-249.643 2866.6666,-180.0745"/>
<polygon fill="#000000" stroke="#000000" points="2866.9647,-176.5864 2856.6452,-178.986 2866.2087,-183.5455 2866.9647,-176.5864"/>
</g>
<!-- r103&#45;&gt;r2449 -->
<g id="edge144" class="edge">
<title>r103&#45;&gt;r2449</title>
<path fill="none" stroke="#000000" d="M4953.1255,-298.1577C5068.8616,-285.3966 5298.4165,-260.0858 5431.9982,-245.357"/>
<polygon fill="#000000" stroke="#000000" points="5432.6832,-248.8028 5442.2393,-244.2278 5431.9159,-241.845 5432.6832,-248.8028"/>
</g>
<!-- r103&#45;&gt;r2423 -->
<g id="edge145" class="edge">
<title>r103&#45;&gt;r2423</title>
<path fill="none" stroke="#000000" d="M4810.6323,-296.9683C4784.0909,-293.8195 4753.6991,-290.4619 4726,-288 4470.5077,-265.2917 4405.831,-270.5065 4150,-252 4113.0465,-249.3268 4072.6122,-246.0913 4036.6564,-243.1048"/>
<polygon fill="#000000" stroke="#000000" points="4036.8967,-239.6128 4026.6405,-242.2698 4036.3151,-246.5886 4036.8967,-239.6128"/>
</g>
<!-- r103&#45;&gt;r1728 -->
<g id="edge146" class="edge">
<title>r103&#45;&gt;r1728</title>
<path fill="none" stroke="#000000" d="M4816.2877,-287.9626C4798.9117,-279.8766 4782.1817,-268.3407 4772,-252 4763.5387,-238.4204 4761.2958,-227.892 4772,-216 4845.8488,-133.9571 5588.1918,-102.7212 5889.205,-93.3671"/>
<polygon fill="#000000" stroke="#000000" points="5889.4017,-96.8628 5899.2893,-93.0568 5889.1864,-89.8661 5889.4017,-96.8628"/>
</g>
<!-- r104 -->
<g id="node59" class="node">
<title>r104</title>
<polygon fill="#d3d3d3" stroke="#000000" points="5074,-396 4928,-396 4928,-360 5074,-360 5074,-396"/>
<text text-anchor="middle" x="5001" y="-374.3" font-family="Times,serif" font-size="14.00" fill="#000000">Rule 104: First Speaker</text>
</g>
<!-- r104&#45;&gt;r103 -->
<g id="edge147" class="edge">
<title>r104&#45;&gt;r103</title>
<path fill="none" stroke="#000000" d="M4970.9713,-359.8314C4955.7504,-350.6221 4937.0872,-339.3301 4920.7917,-329.4706"/>
<polygon fill="#000000" stroke="#000000" points="4922.3868,-326.345 4912.0191,-324.1628 4918.7631,-332.3341 4922.3868,-326.345"/>
</g>
<!-- r2423&#45;&gt;r2422 -->
<g id="edge148" class="edge">
<title>r2423&#45;&gt;r2422</title>
<path fill="none" stroke="#000000" d="M3835.2158,-223.4775C3807.4333,-220.7099 3777.0319,-217.9553 3749,-216 3360.0904,-188.8721 3257.2792,-225.2524 2866.812,-180.1136"/>
<polygon fill="#000000" stroke="#000000" points="2866.9899,-176.6107 2856.6517,-178.9282 2866.1787,-183.5635 2866.9899,-176.6107"/>
</g>
<!-- r2463 -->
<g id="node61" class="node">
<title>r2463</title>
<polygon fill="#d3d3d3" stroke="#000000" points="4307,-324 4085,-324 4085,-288 4307,-288 4307,-324"/>
<text text-anchor="middle" x="4196" y="-302.3" font-family="Times,serif" font-size="14.00" fill="#000000">Rule 2463: Motion of No Confidence</text>
</g>
<!-- r2463&#45;&gt;r2423 -->
<g id="edge149" class="edge">
<title>r2463&#45;&gt;r2423</title>
<path fill="none" stroke="#000000" d="M4129.4714,-287.9243C4092.4568,-277.8675 4046.2204,-265.3052 4007.689,-254.8363"/>
<polygon fill="#000000" stroke="#000000" points="4008.1239,-251.3276 3997.556,-252.0831 4006.2885,-258.0827 4008.1239,-251.3276"/>
</g>
<!-- r2463&#45;&gt;r1728 -->
<g id="edge150" class="edge">
<title>r2463&#45;&gt;r1728</title>
<path fill="none" stroke="#000000" d="M4257.7908,-287.9244C4280.6558,-279.3588 4305.8829,-267.5341 4326,-252 4373.7015,-215.1658 4354.4732,-171.6963 4408,-144 4473.3791,-110.171 5522.305,-95.426 5889.3557,-91.2849"/>
<polygon fill="#000000" stroke="#000000" points="5889.5263,-94.7833 5899.4864,-91.1713 5889.4478,-87.7837 5889.5263,-94.7833"/>
</g>
<!-- r2451 -->
<g id="node62" class="node">
<title>r2451</title>
<polygon fill="#d3d3d3" stroke="#000000" points="3990.5,-324 3815.5,-324 3815.5,-288 3990.5,-288 3990.5,-324"/>
<text text-anchor="middle" x="3903" y="-302.3" font-family="Times,serif" font-size="14.00" fill="#000000">Rule 2451: Executive Orders</text>
</g>
<!-- r2451&#45;&gt;r2555 -->
<g id="edge151" class="edge">
<title>r2451&#45;&gt;r2555</title>
<path fill="none" stroke="#000000" d="M3815.0858,-295.7601C3787.8456,-292.8815 3757.7093,-289.9955 3730,-288 3680.2554,-284.4175 2867.5515,-287.966 2833,-252 2821.9155,-240.4617 2824.9225,-229.8114 2833,-216 2840.6085,-202.9907 2852.631,-192.8734 2865.6286,-185.1006"/>
<polygon fill="#000000" stroke="#000000" points="2867.6663,-187.9743 2874.7405,-180.0872 2864.2918,-181.8413 2867.6663,-187.9743"/>
</g>
<!-- r2451&#45;&gt;r2423 -->
<g id="edge152" class="edge">
<title>r2451&#45;&gt;r2423</title>
<path fill="none" stroke="#000000" d="M3910.0656,-287.8314C3913.126,-279.9617 3916.7779,-270.5712 3920.1682,-261.8533"/>
<polygon fill="#000000" stroke="#000000" points="3923.4768,-263.0019 3923.8393,-252.4133 3916.9527,-260.4647 3923.4768,-263.0019"/>
</g>
<!-- r2575 -->
<g id="node63" class="node">
<title>r2575</title>
<polygon fill="#d3d3d3" stroke="#000000" points="6097,-180 5933,-180 5933,-144 6097,-144 6097,-180"/>
<text text-anchor="middle" x="6015" y="-158.3" font-family="Times,serif" font-size="14.00" fill="#000000">Rule 2575: The Distributor</text>
</g>
<!-- r2575&#45;&gt;r1728 -->
<g id="edge153" class="edge">
<title>r2575&#45;&gt;r1728</title>
<path fill="none" stroke="#000000" d="M6015,-143.8314C6015,-136.131 6015,-126.9743 6015,-118.4166"/>
<polygon fill="#000000" stroke="#000000" points="6018.5001,-118.4132 6015,-108.4133 6011.5001,-118.4133 6018.5001,-118.4132"/>
</g>
<!-- r2464 -->
<g id="node64" class="node">
<title>r2464</title>
<polygon fill="#d3d3d3" stroke="#000000" points="6921,-324 6769,-324 6769,-288 6921,-288 6921,-324"/>
<text text-anchor="middle" x="6845" y="-302.3" font-family="Times,serif" font-size="14.00" fill="#000000">Rule 2464: Tournaments</text>
</g>
<!-- r2464&#45;&gt;r2493 -->
<g id="edge154" class="edge">
<title>r2464&#45;&gt;r2493</title>
<path fill="none" stroke="#000000" d="M6832.3829,-287.8314C6826.6828,-279.6232 6819.8337,-269.7606 6813.5641,-260.7323"/>
<polygon fill="#000000" stroke="#000000" points="6816.3658,-258.6306 6807.787,-252.4133 6810.6162,-262.6234 6816.3658,-258.6306"/>
</g>
<!-- r2464&#45;&gt;r2449 -->
<g id="edge155" class="edge">
<title>r2464&#45;&gt;r2449</title>
<path fill="none" stroke="#000000" d="M6768.7168,-293.4933C6753.2893,-291.3431 6737.1537,-289.3648 6722,-288 6257.8264,-246.1937 6138.5033,-289.9685 5674,-252 5662.2527,-251.0398 5649.9745,-249.7985 5637.787,-248.4169"/>
<polygon fill="#000000" stroke="#000000" points="5637.9227,-244.9091 5627.5845,-247.2265 5637.1114,-251.8619 5637.9227,-244.9091"/>
</g>
<!-- r2464&#45;&gt;r2519 -->
<g id="edge156" class="edge">
<title>r2464&#45;&gt;r2519</title>
<path fill="none" stroke="#000000" d="M6921.3624,-289.6225C6924.6139,-289.05 6927.8368,-288.5059 6931,-288 7076.4928,-264.7288 7248.1392,-248.1544 7343.2576,-239.9178"/>
<polygon fill="#000000" stroke="#000000" points="7343.6818,-243.3943 7353.3453,-239.0507 7343.0823,-236.42 7343.6818,-243.3943"/>
</g>
<!-- r2566 -->
<g id="node65" class="node">
<title>r2566</title>
<polygon fill="#d3d3d3" stroke="#000000" points="6773,-396 6593,-396 6593,-360 6773,-360 6773,-396"/>
<text text-anchor="middle" x="6683" y="-374.3" font-family="Times,serif" font-size="14.00" fill="#000000">Rule 2566: Free Tournaments</text>
</g>
<!-- r2566&#45;&gt;r2493 -->
<g id="edge157" class="edge">
<title>r2566&#45;&gt;r2493</title>
<path fill="none" stroke="#000000" d="M6697.1849,-359.7623C6716.793,-334.5518 6752.292,-288.9103 6774.7038,-260.0952"/>
<polygon fill="#000000" stroke="#000000" points="6777.5536,-262.132 6780.9303,-252.0896 6772.0281,-257.8344 6777.5536,-262.132"/>
</g>
<!-- r2566&#45;&gt;r2449 -->
<g id="edge158" class="edge">
<title>r2566&#45;&gt;r2449</title>
<path fill="none" stroke="#000000" d="M6592.5875,-375.7809C6361.5874,-369.7387 5761.844,-351.5776 5676,-324 5633.1525,-310.2351 5590.5115,-280.1553 5563.5282,-258.5569"/>
<polygon fill="#000000" stroke="#000000" points="5565.6362,-255.7598 5555.6739,-252.1538 5561.2131,-261.1853 5565.6362,-255.7598"/>
</g>
<!-- r2566&#45;&gt;r2464 -->
<g id="edge159" class="edge">
<title>r2566&#45;&gt;r2464</title>
<path fill="none" stroke="#000000" d="M6723.8794,-359.8314C6745.546,-350.2018 6772.3363,-338.295 6795.2078,-328.1299"/>
<polygon fill="#000000" stroke="#000000" points="6796.6979,-331.2978 6804.4145,-324.038 6793.8549,-324.9011 6796.6979,-331.2978"/>
</g>
<!-- r2566&#45;&gt;r1728 -->
<g id="edge160" class="edge">
<title>r2566&#45;&gt;r1728</title>
<path fill="none" stroke="#000000" d="M6611.1332,-359.9388C6593.1686,-351.9084 6575.9262,-340.4082 6565,-324 6542.8174,-290.6877 6586.3564,-173.2131 6559,-144 6530.9583,-114.0551 6292.642,-99.9269 6140.8813,-93.91"/>
<polygon fill="#000000" stroke="#000000" points="6140.6896,-90.3999 6130.561,-93.508 6140.4171,-97.3946 6140.6896,-90.3999"/>
</g>
<!-- r2495 -->
<g id="node66" class="node">
<title>r2495</title>
<polygon fill="#d3d3d3" stroke="#000000" points="7310.5,-396 7087.5,-396 7087.5,-360 7310.5,-360 7310.5,-396"/>
<text text-anchor="middle" x="7199" y="-374.3" font-family="Times,serif" font-size="14.00" fill="#000000">Rule 2495: The Birthday Tournament</text>
</g>
<!-- r2495&#45;&gt;r2493 -->
<g id="edge161" class="edge">
<title>r2495&#45;&gt;r2493</title>
<path fill="none" stroke="#000000" d="M7214.8105,-359.7144C7229.9576,-339.9154 7248.0546,-308.4344 7230,-288 7207.1109,-262.0938 6997.5657,-245.7584 6877.8658,-238.4588"/>
<polygon fill="#000000" stroke="#000000" points="6877.8275,-234.9502 6867.6354,-237.8435 6877.4072,-241.9376 6877.8275,-234.9502"/>
</g>
<!-- r2495&#45;&gt;r649 -->
<g id="edge162" class="edge">
<title>r2495&#45;&gt;r649</title>
<path fill="none" stroke="#000000" d="M7220.6698,-359.816C7240.8784,-340.6708 7265.3578,-310.2745 7247,-288 7140.4518,-158.7195 7043.4229,-235.2193 6877,-216 6455.9408,-167.3742 6347.4839,-197.7962 5924,-180 5817.8207,-175.538 5695.3694,-169.769 5616.6627,-165.9804"/>
<polygon fill="#000000" stroke="#000000" points="5616.4883,-162.468 5606.3314,-165.4823 5616.1512,-169.4599 5616.4883,-162.468"/>
</g>
<!-- r2495&#45;&gt;r2464 -->
<g id="edge163" class="edge">
<title>r2495&#45;&gt;r2464</title>
<path fill="none" stroke="#000000" d="M7108.7149,-359.9834C7059.2638,-350.0736 6996.6271,-337.4542 6931.478,-324.0908"/>
<polygon fill="#000000" stroke="#000000" points="6931.9259,-320.6099 6921.4263,-322.0272 6930.5181,-327.4669 6931.9259,-320.6099"/>
</g>
<!-- r2495&#45;&gt;r1728 -->
<g id="edge164" class="edge">
<title>r2495&#45;&gt;r1728</title>
<path fill="none" stroke="#000000" d="M7231.2779,-359.8412C7243.9425,-350.8521 7257.0816,-338.742 7264,-324 7270.7975,-309.5157 7273.2709,-301.0403 7264,-288 7209.4489,-211.2689 6750.6284,-151.5867 6696,-144 6503.1774,-117.221 6277.6552,-102.5823 6140.638,-95.5248"/>
<polygon fill="#000000" stroke="#000000" points="6140.6848,-92.0227 6130.5196,-95.0091 6140.3284,-99.0136 6140.6848,-92.0227"/>
</g>
<!-- r2495&#45;&gt;r2519 -->
<g id="edge165" class="edge">
<title>r2495&#45;&gt;r2519</title>
<path fill="none" stroke="#000000" d="M7265.4175,-359.9181C7289.8898,-351.3765 7316.987,-339.5698 7339,-324 7363.2761,-306.8295 7384.6948,-280.3416 7398.7386,-260.5404"/>
<polygon fill="#000000" stroke="#000000" points="7401.6682,-262.4574 7404.4742,-252.2409 7395.9096,-258.4777 7401.6682,-262.4574"/>
</g>
</g>
</svg>
